<svg xmlns="http://www.w3.org/2000/svg" xmlns:xlink="http://www.w3.org/1999/xlink" width="700" height="500" viewBox="0 0 2800 2000">
<defs>
  <clipPath id="clip750">
    <rect x="0" y="0" width="2800" height="2000"></rect>
  </clipPath>
</defs>
<path clip-path="url(#clip750)" d="M0 2000 L2800 2000 L2800 -4.44089e-14 L0 -4.44089e-14  Z" fill="#ffffff" fill-rule="evenodd" fill-opacity="1"></path>
<defs>
  <clipPath id="clip751">
    <rect x="560" y="0" width="1961" height="1961"></rect>
  </clipPath>
</defs>
<path clip-path="url(#clip750)" d="M181.543 1813.32 L2530.05 1813.32 L2530.05 47.2441 L181.543 47.2441  Z" fill="#ffffff" fill-rule="evenodd" fill-opacity="1"></path>
<defs>
  <clipPath id="clip752">
    <rect x="181" y="47" width="2350" height="1767"></rect>
  </clipPath>
</defs>
<polyline clip-path="url(#clip752)" style="stroke:#000000; stroke-linecap:round; stroke-linejoin:round; stroke-width:2; stroke-opacity:0.1; fill:none" points="181.543,1813.32 181.543,47.2441 "></polyline>
<polyline clip-path="url(#clip752)" style="stroke:#000000; stroke-linecap:round; stroke-linejoin:round; stroke-width:2; stroke-opacity:0.1; fill:none" points="880.505,1813.32 880.505,47.2441 "></polyline>
<polyline clip-path="url(#clip752)" style="stroke:#000000; stroke-linecap:round; stroke-linejoin:round; stroke-width:2; stroke-opacity:0.1; fill:none" points="1579.47,1813.32 1579.47,47.2441 "></polyline>
<polyline clip-path="url(#clip752)" style="stroke:#000000; stroke-linecap:round; stroke-linejoin:round; stroke-width:2; stroke-opacity:0.1; fill:none" points="2278.43,1813.32 2278.43,47.2441 "></polyline>
<polyline clip-path="url(#clip750)" style="stroke:#000000; stroke-linecap:round; stroke-linejoin:round; stroke-width:4; stroke-opacity:1; fill:none" points="181.543,1813.32 2530.05,1813.32 "></polyline>
<polyline clip-path="url(#clip750)" style="stroke:#000000; stroke-linecap:round; stroke-linejoin:round; stroke-width:4; stroke-opacity:1; fill:none" points="181.543,1813.32 181.543,1794.42 "></polyline>
<polyline clip-path="url(#clip750)" style="stroke:#000000; stroke-linecap:round; stroke-linejoin:round; stroke-width:4; stroke-opacity:1; fill:none" points="880.505,1813.32 880.505,1794.42 "></polyline>
<polyline clip-path="url(#clip750)" style="stroke:#000000; stroke-linecap:round; stroke-linejoin:round; stroke-width:4; stroke-opacity:1; fill:none" points="1579.47,1813.32 1579.47,1794.42 "></polyline>
<polyline clip-path="url(#clip750)" style="stroke:#000000; stroke-linecap:round; stroke-linejoin:round; stroke-width:4; stroke-opacity:1; fill:none" points="2278.43,1813.32 2278.43,1794.42 "></polyline>
<path clip-path="url(#clip750)" d="M181.543 1847.44 Q177.932 1847.44 176.103 1851 Q174.298 1854.54 174.298 1861.67 Q174.298 1868.78 176.103 1872.34 Q177.932 1875.88 181.543 1875.88 Q185.177 1875.88 186.983 1872.34 Q188.812 1868.78 188.812 1861.67 Q188.812 1854.54 186.983 1851 Q185.177 1847.44 181.543 1847.44 M181.543 1843.73 Q187.353 1843.73 190.409 1848.34 Q193.488 1852.92 193.488 1861.67 Q193.488 1870.4 190.409 1875 Q187.353 1879.59 181.543 1879.59 Q175.733 1879.59 172.654 1875 Q169.599 1870.4 169.599 1861.67 Q169.599 1852.92 172.654 1848.34 Q175.733 1843.73 181.543 1843.73 Z" fill="#000000" fill-rule="nonzero" fill-opacity="1"></path><path clip-path="url(#clip750)" d="M855.204 1844.36 L873.56 1844.36 L873.56 1848.29 L859.486 1848.29 L859.486 1856.76 Q860.505 1856.42 861.524 1856.26 Q862.542 1856.07 863.561 1856.07 Q869.348 1856.07 872.727 1859.24 Q876.107 1862.41 876.107 1867.83 Q876.107 1873.41 872.635 1876.51 Q869.162 1879.59 862.843 1879.59 Q860.667 1879.59 858.399 1879.22 Q856.153 1878.85 853.746 1878.11 L853.746 1873.41 Q855.829 1874.54 858.051 1875.1 Q860.274 1875.65 862.75 1875.65 Q866.755 1875.65 869.093 1873.55 Q871.431 1871.44 871.431 1867.83 Q871.431 1864.22 869.093 1862.11 Q866.755 1860.01 862.75 1860.01 Q860.875 1860.01 859 1860.42 Q857.149 1860.84 855.204 1861.72 L855.204 1844.36 Z" fill="#000000" fill-rule="nonzero" fill-opacity="1"></path><path clip-path="url(#clip750)" d="M895.32 1847.44 Q891.709 1847.44 889.88 1851 Q888.074 1854.54 888.074 1861.67 Q888.074 1868.78 889.88 1872.34 Q891.709 1875.88 895.32 1875.88 Q898.954 1875.88 900.759 1872.34 Q902.588 1868.78 902.588 1861.67 Q902.588 1854.54 900.759 1851 Q898.954 1847.44 895.32 1847.44 M895.32 1843.73 Q901.13 1843.73 904.185 1848.34 Q907.264 1852.92 907.264 1861.67 Q907.264 1870.4 904.185 1875 Q901.13 1879.59 895.32 1879.59 Q889.509 1879.59 886.431 1875 Q883.375 1870.4 883.375 1861.67 Q883.375 1852.92 886.431 1848.34 Q889.509 1843.73 895.32 1843.73 Z" fill="#000000" fill-rule="nonzero" fill-opacity="1"></path><path clip-path="url(#clip750)" d="M1539.07 1874.98 L1546.71 1874.98 L1546.71 1848.62 L1538.4 1850.28 L1538.4 1846.02 L1546.67 1844.36 L1551.34 1844.36 L1551.34 1874.98 L1558.98 1874.98 L1558.98 1878.92 L1539.07 1878.92 L1539.07 1874.98 Z" fill="#000000" fill-rule="nonzero" fill-opacity="1"></path><path clip-path="url(#clip750)" d="M1578.42 1847.44 Q1574.81 1847.44 1572.99 1851 Q1571.18 1854.54 1571.18 1861.67 Q1571.18 1868.78 1572.99 1872.34 Q1574.81 1875.88 1578.42 1875.88 Q1582.06 1875.88 1583.86 1872.34 Q1585.69 1868.78 1585.69 1861.67 Q1585.69 1854.54 1583.86 1851 Q1582.06 1847.44 1578.42 1847.44 M1578.42 1843.73 Q1584.24 1843.73 1587.29 1848.34 Q1590.37 1852.92 1590.37 1861.67 Q1590.37 1870.4 1587.29 1875 Q1584.24 1879.59 1578.42 1879.59 Q1572.61 1879.59 1569.54 1875 Q1566.48 1870.4 1566.48 1861.67 Q1566.48 1852.92 1569.54 1848.34 Q1572.61 1843.73 1578.42 1843.73 Z" fill="#000000" fill-rule="nonzero" fill-opacity="1"></path><path clip-path="url(#clip750)" d="M1608.59 1847.44 Q1604.98 1847.44 1603.15 1851 Q1601.34 1854.54 1601.34 1861.67 Q1601.34 1868.78 1603.15 1872.34 Q1604.98 1875.88 1608.59 1875.88 Q1612.22 1875.88 1614.03 1872.34 Q1615.86 1868.78 1615.86 1861.67 Q1615.86 1854.54 1614.03 1851 Q1612.22 1847.44 1608.59 1847.44 M1608.59 1843.73 Q1614.4 1843.73 1617.45 1848.34 Q1620.53 1852.92 1620.53 1861.67 Q1620.53 1870.4 1617.45 1875 Q1614.4 1879.59 1608.59 1879.59 Q1602.78 1879.59 1599.7 1875 Q1596.64 1870.4 1596.64 1861.67 Q1596.64 1852.92 1599.7 1848.34 Q1602.78 1843.73 1608.59 1843.73 Z" fill="#000000" fill-rule="nonzero" fill-opacity="1"></path><path clip-path="url(#clip750)" d="M2238.03 1874.98 L2245.67 1874.98 L2245.67 1848.62 L2237.36 1850.28 L2237.36 1846.02 L2245.63 1844.36 L2250.3 1844.36 L2250.3 1874.98 L2257.94 1874.98 L2257.94 1878.92 L2238.03 1878.92 L2238.03 1874.98 Z" fill="#000000" fill-rule="nonzero" fill-opacity="1"></path><path clip-path="url(#clip750)" d="M2267.43 1844.36 L2285.79 1844.36 L2285.79 1848.29 L2271.72 1848.29 L2271.72 1856.76 Q2272.73 1856.42 2273.75 1856.26 Q2274.77 1856.07 2275.79 1856.07 Q2281.58 1856.07 2284.96 1859.24 Q2288.34 1862.41 2288.34 1867.83 Q2288.34 1873.41 2284.86 1876.51 Q2281.39 1879.59 2275.07 1879.59 Q2272.9 1879.59 2270.63 1879.22 Q2268.38 1878.85 2265.97 1878.11 L2265.97 1873.41 Q2268.06 1874.54 2270.28 1875.1 Q2272.5 1875.65 2274.98 1875.65 Q2278.98 1875.65 2281.32 1873.55 Q2283.66 1871.44 2283.66 1867.83 Q2283.66 1864.22 2281.32 1862.11 Q2278.98 1860.01 2274.98 1860.01 Q2273.1 1860.01 2271.23 1860.42 Q2269.38 1860.84 2267.43 1861.72 L2267.43 1844.36 Z" fill="#000000" fill-rule="nonzero" fill-opacity="1"></path><path clip-path="url(#clip750)" d="M2307.55 1847.44 Q2303.94 1847.44 2302.11 1851 Q2300.3 1854.54 2300.3 1861.67 Q2300.3 1868.78 2302.11 1872.34 Q2303.94 1875.88 2307.55 1875.88 Q2311.18 1875.88 2312.99 1872.34 Q2314.82 1868.78 2314.82 1861.67 Q2314.82 1854.54 2312.99 1851 Q2311.18 1847.44 2307.55 1847.44 M2307.55 1843.73 Q2313.36 1843.73 2316.41 1848.34 Q2319.49 1852.92 2319.49 1861.67 Q2319.49 1870.4 2316.41 1875 Q2313.36 1879.59 2307.55 1879.59 Q2301.74 1879.59 2298.66 1875 Q2295.6 1870.4 2295.6 1861.67 Q2295.6 1852.92 2298.66 1848.34 Q2301.74 1843.73 2307.55 1843.73 Z" fill="#000000" fill-rule="nonzero" fill-opacity="1"></path><path clip-path="url(#clip750)" d="M1158.1 1942.66 L1158.1 1964.18 L1152.24 1964.18 L1152.24 1942.86 Q1152.24 1937.8 1150.27 1935.28 Q1148.29 1932.77 1144.35 1932.77 Q1139.6 1932.77 1136.87 1935.79 Q1134.13 1938.81 1134.13 1944.03 L1134.13 1964.18 L1128.24 1964.18 L1128.24 1914.66 L1134.13 1914.66 L1134.13 1934.07 Q1136.23 1930.86 1139.06 1929.27 Q1141.93 1927.67 1145.65 1927.67 Q1151.79 1927.67 1154.94 1931.49 Q1158.1 1935.28 1158.1 1942.66 Z" fill="#000000" fill-rule="nonzero" fill-opacity="1"></path><path clip-path="url(#clip750)" d="M1183.59 1932.64 Q1178.88 1932.64 1176.14 1936.33 Q1173.41 1939.99 1173.41 1946.39 Q1173.41 1952.79 1176.11 1956.48 Q1178.85 1960.14 1183.59 1960.14 Q1188.27 1960.14 1191.01 1956.45 Q1193.74 1952.75 1193.74 1946.39 Q1193.74 1940.05 1191.01 1936.36 Q1188.27 1932.64 1183.59 1932.64 M1183.59 1927.67 Q1191.23 1927.67 1195.59 1932.64 Q1199.95 1937.6 1199.95 1946.39 Q1199.95 1955.14 1195.59 1960.14 Q1191.23 1965.1 1183.59 1965.1 Q1175.92 1965.1 1171.56 1960.14 Q1167.23 1955.14 1167.23 1946.39 Q1167.23 1937.6 1171.56 1932.64 Q1175.92 1927.67 1183.59 1927.67 Z" fill="#000000" fill-rule="nonzero" fill-opacity="1"></path><path clip-path="url(#clip750)" d="M1209.05 1950.11 L1209.05 1928.53 L1214.91 1928.53 L1214.91 1949.89 Q1214.91 1954.95 1216.88 1957.5 Q1218.86 1960.01 1222.8 1960.01 Q1227.55 1960.01 1230.28 1956.99 Q1233.05 1953.96 1233.05 1948.74 L1233.05 1928.53 L1238.91 1928.53 L1238.91 1964.18 L1233.05 1964.18 L1233.05 1958.71 Q1230.92 1961.95 1228.09 1963.54 Q1225.29 1965.1 1221.56 1965.1 Q1215.42 1965.1 1212.24 1961.28 Q1209.05 1957.47 1209.05 1950.11 M1223.79 1927.67 L1223.79 1927.67 Z" fill="#000000" fill-rule="nonzero" fill-opacity="1"></path><path clip-path="url(#clip750)" d="M1271.63 1934.01 Q1270.64 1933.43 1269.46 1933.18 Q1268.32 1932.89 1266.92 1932.89 Q1261.95 1932.89 1259.28 1936.14 Q1256.64 1939.35 1256.64 1945.4 L1256.64 1964.18 L1250.75 1964.18 L1250.75 1928.53 L1256.64 1928.53 L1256.64 1934.07 Q1258.48 1930.82 1261.44 1929.27 Q1264.4 1927.67 1268.64 1927.67 Q1269.24 1927.67 1269.97 1927.77 Q1270.71 1927.83 1271.6 1927.99 L1271.63 1934.01 Z" fill="#000000" fill-rule="nonzero" fill-opacity="1"></path><path clip-path="url(#clip750)" d="M1298.49 1928.53 L1304.35 1928.53 L1304.35 1964.18 L1298.49 1964.18 L1298.49 1928.53 M1298.49 1914.66 L1304.35 1914.66 L1304.35 1922.07 L1298.49 1922.07 L1298.49 1914.66 Z" fill="#000000" fill-rule="nonzero" fill-opacity="1"></path><path clip-path="url(#clip750)" d="M1346.23 1942.66 L1346.23 1964.18 L1340.38 1964.18 L1340.38 1942.86 Q1340.38 1937.8 1338.4 1935.28 Q1336.43 1932.77 1332.48 1932.77 Q1327.74 1932.77 1325 1935.79 Q1322.27 1938.81 1322.27 1944.03 L1322.27 1964.18 L1316.38 1964.18 L1316.38 1928.53 L1322.27 1928.53 L1322.27 1934.07 Q1324.37 1930.86 1327.2 1929.27 Q1330.07 1927.67 1333.79 1927.67 Q1339.93 1927.67 1343.08 1931.49 Q1346.23 1935.28 1346.23 1942.66 Z" fill="#000000" fill-rule="nonzero" fill-opacity="1"></path><path clip-path="url(#clip750)" d="M1363.71 1918.41 L1363.71 1928.53 L1375.77 1928.53 L1375.77 1933.08 L1363.71 1933.08 L1363.71 1952.44 Q1363.71 1956.8 1364.89 1958.04 Q1366.1 1959.28 1369.76 1959.28 L1375.77 1959.28 L1375.77 1964.18 L1369.76 1964.18 Q1362.98 1964.18 1360.4 1961.67 Q1357.82 1959.12 1357.82 1952.44 L1357.82 1933.08 L1353.52 1933.08 L1353.52 1928.53 L1357.82 1928.53 L1357.82 1918.41 L1363.71 1918.41 Z" fill="#000000" fill-rule="nonzero" fill-opacity="1"></path><path clip-path="url(#clip750)" d="M1397.29 1932.64 Q1392.58 1932.64 1389.84 1936.33 Q1387.1 1939.99 1387.1 1946.39 Q1387.1 1952.79 1389.81 1956.48 Q1392.54 1960.14 1397.29 1960.14 Q1401.97 1960.14 1404.7 1956.45 Q1407.44 1952.75 1407.44 1946.39 Q1407.44 1940.05 1404.7 1936.36 Q1401.97 1932.64 1397.29 1932.64 M1397.29 1927.67 Q1404.93 1927.67 1409.29 1932.64 Q1413.65 1937.6 1413.65 1946.39 Q1413.65 1955.14 1409.29 1960.14 Q1404.93 1965.1 1397.29 1965.1 Q1389.62 1965.1 1385.26 1960.14 Q1380.93 1955.14 1380.93 1946.39 Q1380.93 1937.6 1385.26 1932.64 Q1389.62 1927.67 1397.29 1927.67 Z" fill="#000000" fill-rule="nonzero" fill-opacity="1"></path><path clip-path="url(#clip750)" d="M1458.91 1967.49 Q1456.42 1973.86 1454.07 1975.8 Q1451.71 1977.74 1447.77 1977.74 L1443.09 1977.74 L1443.09 1972.84 L1446.53 1972.84 Q1448.95 1972.84 1450.28 1971.69 Q1451.62 1970.55 1453.24 1966.28 L1454.29 1963.61 L1439.87 1928.53 L1446.08 1928.53 L1457.22 1956.41 L1468.36 1928.53 L1474.57 1928.53 L1458.91 1967.49 Z" fill="#000000" fill-rule="nonzero" fill-opacity="1"></path><path clip-path="url(#clip750)" d="M1513.14 1944.89 L1513.14 1947.76 L1486.22 1947.76 Q1486.6 1953.8 1489.84 1956.99 Q1493.12 1960.14 1498.95 1960.14 Q1502.32 1960.14 1505.47 1959.31 Q1508.66 1958.48 1511.77 1956.83 L1511.77 1962.37 Q1508.62 1963.7 1505.31 1964.4 Q1502 1965.1 1498.6 1965.1 Q1490.07 1965.1 1485.07 1960.14 Q1480.11 1955.17 1480.11 1946.71 Q1480.11 1937.95 1484.82 1932.83 Q1489.56 1927.67 1497.58 1927.67 Q1504.77 1927.67 1508.94 1932.32 Q1513.14 1936.94 1513.14 1944.89 M1507.29 1943.17 Q1507.22 1938.37 1504.58 1935.5 Q1501.97 1932.64 1497.64 1932.64 Q1492.74 1932.64 1489.78 1935.41 Q1486.85 1938.18 1486.41 1943.21 L1507.29 1943.17 Z" fill="#000000" fill-rule="nonzero" fill-opacity="1"></path><path clip-path="url(#clip750)" d="M1538.96 1946.26 Q1531.86 1946.26 1529.12 1947.88 Q1526.38 1949.51 1526.38 1953.42 Q1526.38 1956.54 1528.42 1958.39 Q1530.49 1960.2 1534.02 1960.2 Q1538.89 1960.2 1541.82 1956.76 Q1544.78 1953.3 1544.78 1947.57 L1544.78 1946.26 L1538.96 1946.26 M1550.64 1943.84 L1550.64 1964.18 L1544.78 1964.18 L1544.78 1958.77 Q1542.78 1962.02 1539.78 1963.58 Q1536.79 1965.1 1532.46 1965.1 Q1526.99 1965.1 1523.74 1962.05 Q1520.53 1958.96 1520.53 1953.8 Q1520.53 1947.79 1524.54 1944.73 Q1528.58 1941.68 1536.57 1941.68 L1544.78 1941.68 L1544.78 1941.11 Q1544.78 1937.06 1542.11 1934.87 Q1539.47 1932.64 1534.66 1932.64 Q1531.6 1932.64 1528.71 1933.37 Q1525.81 1934.1 1523.14 1935.57 L1523.14 1930.16 Q1526.35 1928.91 1529.38 1928.31 Q1532.4 1927.67 1535.26 1927.67 Q1543 1927.67 1546.82 1931.68 Q1550.64 1935.69 1550.64 1943.84 Z" fill="#000000" fill-rule="nonzero" fill-opacity="1"></path><path clip-path="url(#clip750)" d="M1583.36 1934.01 Q1582.37 1933.43 1581.19 1933.18 Q1580.05 1932.89 1578.65 1932.89 Q1573.68 1932.89 1571.01 1936.14 Q1568.37 1939.35 1568.37 1945.4 L1568.37 1964.18 L1562.48 1964.18 L1562.48 1928.53 L1568.37 1928.53 L1568.37 1934.07 Q1570.21 1930.82 1573.17 1929.27 Q1576.13 1927.67 1580.37 1927.67 Q1580.97 1927.67 1581.7 1927.77 Q1582.43 1927.83 1583.33 1927.99 L1583.36 1934.01 Z" fill="#000000" fill-rule="nonzero" fill-opacity="1"></path><polyline clip-path="url(#clip750)" style="stroke:#000000; stroke-linecap:round; stroke-linejoin:round; stroke-width:4; stroke-opacity:1; fill:none" points="181.543,1813.32 181.543,47.2441 "></polyline>
<polyline clip-path="url(#clip750)" style="stroke:#000000; stroke-linecap:round; stroke-linejoin:round; stroke-width:4; stroke-opacity:1; fill:none" points="181.543,1813.32 200.441,1813.32 "></polyline>
<polyline clip-path="url(#clip750)" style="stroke:#000000; stroke-linecap:round; stroke-linejoin:round; stroke-width:4; stroke-opacity:1; fill:none" points="181.543,1224.63 200.441,1224.63 "></polyline>
<polyline clip-path="url(#clip750)" style="stroke:#000000; stroke-linecap:round; stroke-linejoin:round; stroke-width:4; stroke-opacity:1; fill:none" points="181.543,635.935 200.441,635.935 "></polyline>
<polyline clip-path="url(#clip750)" style="stroke:#000000; stroke-linecap:round; stroke-linejoin:round; stroke-width:4; stroke-opacity:1; fill:none" points="181.543,47.2441 200.441,47.2441 "></polyline>
<path clip-path="url(#clip750)" d="M127.599 1799.12 Q123.988 1799.12 122.159 1802.68 Q120.353 1806.22 120.353 1813.35 Q120.353 1820.46 122.159 1824.02 Q123.988 1827.56 127.599 1827.56 Q131.233 1827.56 133.039 1824.02 Q134.867 1820.46 134.867 1813.35 Q134.867 1806.22 133.039 1802.68 Q131.233 1799.12 127.599 1799.12 M127.599 1795.41 Q133.409 1795.41 136.465 1800.02 Q139.543 1804.6 139.543 1813.35 Q139.543 1822.08 136.465 1826.68 Q133.409 1831.27 127.599 1831.27 Q121.789 1831.27 118.71 1826.68 Q115.654 1822.08 115.654 1813.35 Q115.654 1804.6 118.71 1800.02 Q121.789 1795.41 127.599 1795.41 Z" fill="#000000" fill-rule="nonzero" fill-opacity="1"></path><path clip-path="url(#clip750)" d="M119.636 1237.97 L127.275 1237.97 L127.275 1211.61 L118.965 1213.27 L118.965 1209.01 L127.228 1207.35 L131.904 1207.35 L131.904 1237.97 L139.543 1237.97 L139.543 1241.91 L119.636 1241.91 L119.636 1237.97 Z" fill="#000000" fill-rule="nonzero" fill-opacity="1"></path><path clip-path="url(#clip750)" d="M123.224 649.28 L139.543 649.28 L139.543 653.215 L117.599 653.215 L117.599 649.28 Q120.261 646.525 124.844 641.896 Q129.451 637.243 130.631 635.9 Q132.877 633.377 133.756 631.641 Q134.659 629.882 134.659 628.192 Q134.659 625.437 132.715 623.701 Q130.793 621.965 127.691 621.965 Q125.492 621.965 123.039 622.729 Q120.608 623.493 117.83 625.044 L117.83 620.322 Q120.654 619.187 123.108 618.609 Q125.562 618.03 127.599 618.03 Q132.969 618.03 136.164 620.715 Q139.358 623.4 139.358 627.891 Q139.358 630.021 138.548 631.942 Q137.761 633.84 135.654 636.433 Q135.076 637.104 131.974 640.322 Q128.872 643.516 123.224 649.28 Z" fill="#000000" fill-rule="nonzero" fill-opacity="1"></path><path clip-path="url(#clip750)" d="M132.414 45.8899 Q135.77 46.6075 137.645 48.876 Q139.543 51.1445 139.543 54.4779 Q139.543 59.5936 136.025 62.3945 Q132.506 65.1954 126.025 65.1954 Q123.849 65.1954 121.534 64.7556 Q119.242 64.3389 116.789 63.4824 L116.789 58.9686 Q118.733 60.1028 121.048 60.6815 Q123.363 61.2602 125.886 61.2602 Q130.284 61.2602 132.576 59.5241 Q134.89 57.788 134.89 54.4779 Q134.89 51.4223 132.738 49.7094 Q130.608 47.9733 126.789 47.9733 L122.761 47.9733 L122.761 44.1307 L126.974 44.1307 Q130.423 44.1307 132.252 42.765 Q134.08 41.3761 134.08 38.7835 Q134.08 36.1215 132.182 34.7094 Q130.307 33.2743 126.789 33.2743 Q124.867 33.2743 122.668 33.6909 Q120.469 34.1076 117.83 34.9872 L117.83 30.8206 Q120.492 30.0798 122.807 29.7095 Q125.145 29.3391 127.205 29.3391 Q132.529 29.3391 135.631 31.7696 Q138.733 34.177 138.733 38.2974 Q138.733 41.1677 137.09 43.1585 Q135.446 45.1261 132.414 45.8899 Z" fill="#000000" fill-rule="nonzero" fill-opacity="1"></path><path clip-path="url(#clip750)" d="M23.7505 1207.49 L23.7505 1201.63 L51.5686 1194.31 L23.7505 1187.03 L23.7505 1180.12 L51.5686 1172.8 L23.7505 1165.51 L23.7505 1159.65 L59.3984 1168.98 L59.3984 1175.89 L30.1798 1183.56 L59.3984 1191.26 L59.3984 1198.17 L23.7505 1207.49 Z" fill="#000000" fill-rule="nonzero" fill-opacity="1"></path><path clip-path="url(#clip750)" d="M23.7505 1150.77 L23.7505 1144.92 L59.3984 1144.92 L59.3984 1150.77 L23.7505 1150.77 M9.87325 1150.77 L9.87325 1144.92 L17.2893 1144.92 L17.2893 1150.77 L9.87325 1150.77 Z" fill="#000000" fill-rule="nonzero" fill-opacity="1"></path><path clip-path="url(#clip750)" d="M37.8824 1103.03 L59.3984 1103.03 L59.3984 1108.89 L38.0733 1108.89 Q33.0126 1108.89 30.4981 1110.86 Q27.9837 1112.83 27.9837 1116.78 Q27.9837 1121.52 31.0074 1124.26 Q34.0311 1127 39.251 1127 L59.3984 1127 L59.3984 1132.89 L23.7505 1132.89 L23.7505 1127 L29.2887 1127 Q26.074 1124.9 24.4825 1122.06 Q22.8911 1119.2 22.8911 1115.47 Q22.8911 1109.33 26.7105 1106.18 Q30.4981 1103.03 37.8824 1103.03 Z" fill="#000000" fill-rule="nonzero" fill-opacity="1"></path><path clip-path="url(#clip750)" d="M29.1613 1067.89 L9.87325 1067.89 L9.87325 1062.03 L59.3984 1062.03 L59.3984 1067.89 L54.0512 1067.89 Q57.2341 1069.74 58.7937 1072.57 Q60.3215 1075.37 60.3215 1079.32 Q60.3215 1085.78 55.1652 1089.85 Q50.009 1093.9 41.6063 1093.9 Q33.2036 1093.9 28.0473 1089.85 Q22.8911 1085.78 22.8911 1079.32 Q22.8911 1075.37 24.4507 1072.57 Q25.9785 1069.74 29.1613 1067.89 M41.6063 1087.85 Q48.0675 1087.85 51.7596 1085.21 Q55.4199 1082.53 55.4199 1077.89 Q55.4199 1073.24 51.7596 1070.56 Q48.0675 1067.89 41.6063 1067.89 Q35.1451 1067.89 31.4848 1070.56 Q27.7927 1073.24 27.7927 1077.89 Q27.7927 1082.53 31.4848 1085.21 Q35.1451 1087.85 41.6063 1087.85 Z" fill="#000000" fill-rule="nonzero" fill-opacity="1"></path><path clip-path="url(#clip750)" d="M24.8008 1006.53 L30.339 1006.53 Q29.0659 1009.01 28.4293 1011.68 Q27.7927 1014.36 27.7927 1017.22 Q27.7927 1021.58 29.1295 1023.78 Q30.4663 1025.94 33.1399 1025.94 Q35.1769 1025.94 36.3546 1024.38 Q37.5004 1022.82 38.5508 1018.11 L38.9964 1016.11 Q40.3332 1009.87 42.7839 1007.26 Q45.2029 1004.62 49.5634 1004.62 Q54.5287 1004.62 57.4251 1008.56 Q60.3215 1012.48 60.3215 1019.35 Q60.3215 1022.22 59.7486 1025.34 Q59.2075 1028.42 58.0935 1031.86 L52.0461 1031.86 Q53.733 1028.61 54.5923 1025.46 Q55.4199 1022.31 55.4199 1019.23 Q55.4199 1015.09 54.0194 1012.86 Q52.5871 1010.63 50.009 1010.63 Q47.6219 1010.63 46.3487 1012.25 Q45.0756 1013.85 43.8979 1019.29 L43.4205 1021.33 Q42.2747 1026.77 39.9194 1029.19 Q37.5322 1031.61 33.3945 1031.61 Q28.3656 1031.61 25.6284 1028.04 Q22.8911 1024.48 22.8911 1017.92 Q22.8911 1014.67 23.3685 1011.81 Q23.846 1008.94 24.8008 1006.53 Z" fill="#000000" fill-rule="nonzero" fill-opacity="1"></path><path clip-path="url(#clip750)" d="M54.0512 989.625 L72.9574 989.625 L72.9574 995.513 L23.7505 995.513 L23.7505 989.625 L29.1613 989.625 Q25.9785 987.779 24.4507 984.978 Q22.8911 982.145 22.8911 978.23 Q22.8911 971.737 28.0473 967.695 Q33.2036 963.621 41.6063 963.621 Q50.009 963.621 55.1652 967.695 Q60.3215 971.737 60.3215 978.23 Q60.3215 982.145 58.7937 984.978 Q57.2341 987.779 54.0512 989.625 M41.6063 969.7 Q35.1451 969.7 31.4848 972.374 Q27.7927 975.016 27.7927 979.663 Q27.7927 984.309 31.4848 986.983 Q35.1451 989.625 41.6063 989.625 Q48.0675 989.625 51.7596 986.983 Q55.4199 984.309 55.4199 979.663 Q55.4199 975.016 51.7596 972.374 Q48.0675 969.7 41.6063 969.7 Z" fill="#000000" fill-rule="nonzero" fill-opacity="1"></path><path clip-path="url(#clip750)" d="M40.1104 923.421 L42.9749 923.421 L42.9749 950.348 Q49.0223 949.966 52.2052 946.72 Q55.3562 943.442 55.3562 937.617 Q55.3562 934.243 54.5287 931.092 Q53.7011 927.909 52.0461 924.79 L57.5842 924.79 Q58.921 927.941 59.6212 931.251 Q60.3215 934.561 60.3215 937.967 Q60.3215 946.497 55.3562 951.494 Q50.391 956.46 41.9246 956.46 Q33.1717 956.46 28.0473 951.749 Q22.8911 947.006 22.8911 938.986 Q22.8911 931.792 27.5381 927.623 Q32.1532 923.421 40.1104 923.421 M38.3916 929.278 Q33.5855 929.342 30.7209 931.983 Q27.8564 934.593 27.8564 938.922 Q27.8564 943.824 30.6254 946.784 Q33.3945 949.712 38.4234 950.157 L38.3916 929.278 Z" fill="#000000" fill-rule="nonzero" fill-opacity="1"></path><path clip-path="url(#clip750)" d="M40.1104 883.318 L42.9749 883.318 L42.9749 910.244 Q49.0223 909.863 52.2052 906.616 Q55.3562 903.338 55.3562 897.513 Q55.3562 894.139 54.5287 890.988 Q53.7011 887.805 52.0461 884.686 L57.5842 884.686 Q58.921 887.837 59.6212 891.147 Q60.3215 894.458 60.3215 897.863 Q60.3215 906.393 55.3562 911.39 Q50.391 916.356 41.9246 916.356 Q33.1717 916.356 28.0473 911.645 Q22.8911 906.902 22.8911 898.882 Q22.8911 891.688 27.5381 887.519 Q32.1532 883.318 40.1104 883.318 M38.3916 889.174 Q33.5855 889.238 30.7209 891.879 Q27.8564 894.489 27.8564 898.818 Q27.8564 903.72 30.6254 906.68 Q33.3945 909.608 38.4234 910.054 L38.3916 889.174 Z" fill="#000000" fill-rule="nonzero" fill-opacity="1"></path><path clip-path="url(#clip750)" d="M29.1613 850.248 L9.87325 850.248 L9.87325 844.391 L59.3984 844.391 L59.3984 850.248 L54.0512 850.248 Q57.2341 852.094 58.7937 854.926 Q60.3215 857.727 60.3215 861.674 Q60.3215 868.135 55.1652 872.209 Q50.009 876.252 41.6063 876.252 Q33.2036 876.252 28.0473 872.209 Q22.8911 868.135 22.8911 861.674 Q22.8911 857.727 24.4507 854.926 Q25.9785 852.094 29.1613 850.248 M41.6063 870.204 Q48.0675 870.204 51.7596 867.562 Q55.4199 864.889 55.4199 860.242 Q55.4199 855.595 51.7596 852.921 Q48.0675 850.248 41.6063 850.248 Q35.1451 850.248 31.4848 852.921 Q27.7927 855.595 27.7927 860.242 Q27.7927 864.889 31.4848 867.562 Q35.1451 870.204 41.6063 870.204 Z" fill="#000000" fill-rule="nonzero" fill-opacity="1"></path><path clip-path="url(#clip750)" d="M9.87325 812.149 L9.87325 798.654 L14.4247 798.654 L14.4247 806.292 L63.4407 806.292 L63.4407 798.654 L67.9921 798.654 L67.9921 812.149 L9.87325 812.149 Z" fill="#000000" fill-rule="nonzero" fill-opacity="1"></path><path clip-path="url(#clip750)" d="M30.5936 758.422 Q26.6469 756.226 24.769 753.171 Q22.8911 750.115 22.8911 745.977 Q22.8911 740.407 26.806 737.384 Q30.6891 734.36 37.8824 734.36 L59.3984 734.36 L59.3984 740.248 L38.0733 740.248 Q32.9489 740.248 30.4663 742.063 Q27.9837 743.877 27.9837 747.601 Q27.9837 752.152 31.0074 754.794 Q34.0311 757.436 39.251 757.436 L59.3984 757.436 L59.3984 763.324 L38.0733 763.324 Q32.9171 763.324 30.4663 765.138 Q27.9837 766.952 27.9837 770.74 Q27.9837 775.228 31.0392 777.87 Q34.0629 780.511 39.251 780.511 L59.3984 780.511 L59.3984 786.4 L23.7505 786.4 L23.7505 780.511 L29.2887 780.511 Q26.0103 778.506 24.4507 775.705 Q22.8911 772.904 22.8911 769.053 Q22.8911 765.17 24.8645 762.465 Q26.8379 759.727 30.5936 758.422 Z" fill="#000000" fill-rule="nonzero" fill-opacity="1"></path><path clip-path="url(#clip750)" d="M11.8784 712.271 L11.8784 706.86 L65.4459 723.411 L65.4459 728.822 L11.8784 712.271 Z" fill="#000000" fill-rule="nonzero" fill-opacity="1"></path><path clip-path="url(#clip750)" d="M24.8008 677.992 L30.339 677.992 Q29.0659 680.474 28.4293 683.148 Q27.7927 685.821 27.7927 688.686 Q27.7927 693.047 29.1295 695.243 Q30.4663 697.407 33.1399 697.407 Q35.1769 697.407 36.3546 695.847 Q37.5004 694.288 38.5508 689.577 L38.9964 687.572 Q40.3332 681.334 42.7839 678.724 Q45.2029 676.082 49.5634 676.082 Q54.5287 676.082 57.4251 680.029 Q60.3215 683.944 60.3215 690.819 Q60.3215 693.683 59.7486 696.802 Q59.2075 699.89 58.0935 703.327 L52.0461 703.327 Q53.733 700.081 54.5923 696.93 Q55.4199 693.779 55.4199 690.691 Q55.4199 686.554 54.0194 684.326 Q52.5871 682.098 50.009 682.098 Q47.6219 682.098 46.3487 683.721 Q45.0756 685.312 43.8979 690.755 L43.4205 692.792 Q42.2747 698.235 39.9194 700.654 Q37.5322 703.073 33.3945 703.073 Q28.3656 703.073 25.6284 699.508 Q22.8911 695.943 22.8911 689.386 Q22.8911 686.14 23.3685 683.275 Q23.846 680.411 24.8008 677.992 Z" fill="#000000" fill-rule="nonzero" fill-opacity="1"></path><path clip-path="url(#clip750)" d="M9.87325 653.07 L67.9921 653.07 L67.9921 666.565 L63.4407 666.565 L63.4407 658.958 L14.4247 658.958 L14.4247 666.565 L9.87325 666.565 L9.87325 653.07 Z" fill="#000000" fill-rule="nonzero" fill-opacity="1"></path><polyline clip-path="url(#clip752)" style="stroke:#0000ff; stroke-linecap:round; stroke-linejoin:round; stroke-width:4; stroke-opacity:1; fill:none" points="195.522,989.15 209.502,930.281 223.481,989.15 237.46,989.15 251.439,989.15 265.419,989.15 279.398,930.281 293.377,930.281 307.356,930.281 321.336,989.15 335.315,989.15 349.294,989.15 363.273,989.15 377.252,930.281 391.232,930.281 405.211,989.15 419.19,989.15 433.169,812.542 447.149,694.804 461.128,812.542 475.107,871.411 489.086,930.281 503.066,1106.89 517.045,1165.76 531.024,1106.89 545.003,1048.02 558.983,1048.02 572.962,1048.02 586.941,1048.02 600.92,930.281 614.899,930.281 628.879,871.411 642.858,871.411 656.837,812.542 670.816,812.542 684.796,753.673 698.775,812.542 712.754,812.542 726.733,753.673 740.713,753.673 754.692,694.804 768.671,635.935 782.65,635.935 796.629,694.804 810.609,812.542 824.588,930.281 838.567,1048.02 852.546,1165.76 866.526,1165.76 880.505,1165.76 894.484,1106.89 908.463,930.281 922.443,459.328 936.422,47.2441 950.401,223.851 964.38,635.935 978.36,930.281 992.339,1048.02 1006.32,1106.89 1020.3,1106.89 1034.28,1106.89 1048.26,1048.02 1062.23,1048.02 1076.21,1106.89 1090.19,1165.76 1104.17,930.281 1118.15,753.673 1132.13,694.804 1146.11,753.673 1160.09,930.281 1174.07,1224.63 1188.05,1342.36 1202.03,1048.02 1216.01,989.15 1229.99,1048.02 1243.96,1048.02 1257.94,989.15 1271.92,871.411 1285.9,871.411 1299.88,812.542 1313.86,812.542 1327.84,812.542 1341.82,753.673 1355.8,753.673 1369.78,694.804 1383.76,694.804 1397.74,753.673 1411.72,871.411 1425.7,1048.02 1439.67,989.15 1453.65,1048.02 1467.63,1224.63 1481.61,1401.23 1495.59,1577.84 1509.57,1636.71 1523.55,1577.84 1537.53,1224.63 1551.51,989.15 1565.49,871.411 1579.47,812.542 1593.45,812.542 1607.43,753.673 1621.4,753.673 1635.38,753.673 1649.36,753.673 1663.34,812.542 1677.32,812.542 1691.3,812.542 1705.28,753.673 1719.26,753.673 1733.24,871.411 1747.22,871.411 1761.2,577.066 1775.18,282.72 1789.16,282.72 1803.13,400.459 1817.11,518.197 1831.09,694.804 1845.07,989.15 1859.05,1224.63 1873.03,1342.36 1887.01,1342.36 1900.99,1342.36 1914.97,1283.5 1928.95,1224.63 1942.93,1165.76 1956.91,1106.89 1970.89,1165.76 1984.86,1165.76 1998.84,1224.63 2012.82,1283.5 2026.8,1342.36 2040.78,1401.23 2054.76,1401.23 2068.74,1342.36 2082.72,1342.36 2096.7,1165.76 2110.68,930.281 2124.66,753.673 2138.64,577.066 2152.62,635.935 2166.59,812.542 2180.57,1048.02 2194.55,1106.89 2208.53,1165.76 2222.51,1048.02 2236.49,930.281 2250.47,871.411 2264.45,871.411 2278.43,871.411 2292.41,871.411 2306.39,930.281 2320.37,930.281 2334.35,989.15 2348.32,989.15 2362.3,1048.02 2376.28,1106.89 2390.26,1165.76 2404.24,1224.63 2418.22,1106.89 2432.2,989.15 2446.18,930.281 2460.16,989.15 2474.14,989.15 2488.12,1106.89 2502.1,1224.63 2516.08,1342.36 2530.05,1342.36 "></polyline>
<path clip-path="url(#clip750)" d="M1952.85 209.793 L2451.77 209.793 L2451.77 106.113 L1952.85 106.113  Z" fill="#ffffff" fill-rule="evenodd" fill-opacity="1"></path>
<polyline clip-path="url(#clip750)" style="stroke:#000000; stroke-linecap:round; stroke-linejoin:round; stroke-width:4; stroke-opacity:1; fill:none" points="1952.85,209.793 2451.77,209.793 2451.77,106.113 1952.85,106.113 1952.85,209.793 "></polyline>
<polyline clip-path="url(#clip750)" style="stroke:#0000ff; stroke-linecap:round; stroke-linejoin:round; stroke-width:4; stroke-opacity:1; fill:none" points="1978.94,157.953 2135.51,157.953 "></polyline>
<path clip-path="url(#clip750)" d="M2161.6 149.307 L2165.86 149.307 L2171.19 169.539 L2176.49 149.307 L2181.51 149.307 L2186.83 169.539 L2192.14 149.307 L2196.4 149.307 L2189.61 175.233 L2184.59 175.233 L2179.01 153.983 L2173.41 175.233 L2168.39 175.233 L2161.6 149.307 Z" fill="#000000" fill-rule="nonzero" fill-opacity="1"></path><path clip-path="url(#clip750)" d="M2202.85 149.307 L2207.11 149.307 L2207.11 175.233 L2202.85 175.233 L2202.85 149.307 M2202.85 139.215 L2207.11 139.215 L2207.11 144.608 L2202.85 144.608 L2202.85 139.215 Z" fill="#000000" fill-rule="nonzero" fill-opacity="1"></path><path clip-path="url(#clip750)" d="M2237.58 159.585 L2237.58 175.233 L2233.32 175.233 L2233.32 159.724 Q2233.32 156.043 2231.88 154.215 Q2230.45 152.386 2227.58 152.386 Q2224.13 152.386 2222.14 154.585 Q2220.14 156.784 2220.14 160.58 L2220.14 175.233 L2215.86 175.233 L2215.86 149.307 L2220.14 149.307 L2220.14 153.335 Q2221.67 150.997 2223.73 149.84 Q2225.82 148.682 2228.52 148.682 Q2232.99 148.682 2235.28 151.46 Q2237.58 154.215 2237.58 159.585 Z" fill="#000000" fill-rule="nonzero" fill-opacity="1"></path><path clip-path="url(#clip750)" d="M2263.13 153.243 L2263.13 139.215 L2267.39 139.215 L2267.39 175.233 L2263.13 175.233 L2263.13 171.344 Q2261.79 173.659 2259.73 174.793 Q2257.69 175.904 2254.82 175.904 Q2250.12 175.904 2247.16 172.155 Q2244.22 168.405 2244.22 162.293 Q2244.22 156.182 2247.16 152.432 Q2250.12 148.682 2254.82 148.682 Q2257.69 148.682 2259.73 149.817 Q2261.79 150.928 2263.13 153.243 M2248.62 162.293 Q2248.62 166.992 2250.54 169.678 Q2252.48 172.34 2255.86 172.34 Q2259.24 172.34 2261.19 169.678 Q2263.13 166.992 2263.13 162.293 Q2263.13 157.594 2261.19 154.932 Q2259.24 152.247 2255.86 152.247 Q2252.48 152.247 2250.54 154.932 Q2248.62 157.594 2248.62 162.293 Z" fill="#000000" fill-rule="nonzero" fill-opacity="1"></path><path clip-path="url(#clip750)" d="M2307.76 150.071 L2307.76 154.099 Q2305.95 153.173 2304.01 152.71 Q2302.07 152.247 2299.98 152.247 Q2296.81 152.247 2295.21 153.219 Q2293.64 154.192 2293.64 156.136 Q2293.64 157.618 2294.77 158.474 Q2295.91 159.307 2299.33 160.071 L2300.79 160.395 Q2305.33 161.368 2307.23 163.15 Q2309.15 164.909 2309.15 168.08 Q2309.15 171.692 2306.28 173.798 Q2303.43 175.904 2298.43 175.904 Q2296.35 175.904 2294.08 175.488 Q2291.83 175.094 2289.33 174.284 L2289.33 169.886 Q2291.7 171.113 2293.99 171.738 Q2296.28 172.34 2298.52 172.34 Q2301.53 172.34 2303.15 171.321 Q2304.77 170.28 2304.77 168.405 Q2304.77 166.668 2303.59 165.743 Q2302.44 164.817 2298.48 163.96 L2297 163.613 Q2293.04 162.78 2291.28 161.067 Q2289.52 159.33 2289.52 156.321 Q2289.52 152.664 2292.11 150.673 Q2294.7 148.682 2299.47 148.682 Q2301.83 148.682 2303.92 149.03 Q2306 149.377 2307.76 150.071 Z" fill="#000000" fill-rule="nonzero" fill-opacity="1"></path><path clip-path="url(#clip750)" d="M2320.05 171.344 L2320.05 185.094 L2315.77 185.094 L2315.77 149.307 L2320.05 149.307 L2320.05 153.243 Q2321.39 150.928 2323.43 149.817 Q2325.49 148.682 2328.34 148.682 Q2333.06 148.682 2336 152.432 Q2338.96 156.182 2338.96 162.293 Q2338.96 168.405 2336 172.155 Q2333.06 175.904 2328.34 175.904 Q2325.49 175.904 2323.43 174.793 Q2321.39 173.659 2320.05 171.344 M2334.54 162.293 Q2334.54 157.594 2332.6 154.932 Q2330.68 152.247 2327.3 152.247 Q2323.92 152.247 2321.97 154.932 Q2320.05 157.594 2320.05 162.293 Q2320.05 166.992 2321.97 169.678 Q2323.92 172.34 2327.3 172.34 Q2330.68 172.34 2332.6 169.678 Q2334.54 166.992 2334.54 162.293 Z" fill="#000000" fill-rule="nonzero" fill-opacity="1"></path><path clip-path="url(#clip750)" d="M2368.2 161.205 L2368.2 163.289 L2348.62 163.289 Q2348.89 167.687 2351.26 170.002 Q2353.64 172.293 2357.88 172.293 Q2360.33 172.293 2362.62 171.692 Q2364.94 171.09 2367.2 169.886 L2367.2 173.914 Q2364.91 174.886 2362.51 175.395 Q2360.1 175.904 2357.62 175.904 Q2351.42 175.904 2347.78 172.293 Q2344.17 168.682 2344.17 162.525 Q2344.17 156.159 2347.6 152.432 Q2351.05 148.682 2356.88 148.682 Q2362.11 148.682 2365.14 152.062 Q2368.2 155.418 2368.2 161.205 M2363.94 159.955 Q2363.89 156.46 2361.97 154.377 Q2360.07 152.293 2356.93 152.293 Q2353.36 152.293 2351.21 154.307 Q2349.08 156.321 2348.76 159.979 L2363.94 159.955 Z" fill="#000000" fill-rule="nonzero" fill-opacity="1"></path><path clip-path="url(#clip750)" d="M2397.37 161.205 L2397.37 163.289 L2377.78 163.289 Q2378.06 167.687 2380.42 170.002 Q2382.81 172.293 2387.04 172.293 Q2389.5 172.293 2391.79 171.692 Q2394.1 171.09 2396.37 169.886 L2396.37 173.914 Q2394.08 174.886 2391.67 175.395 Q2389.26 175.904 2386.79 175.904 Q2380.58 175.904 2376.95 172.293 Q2373.34 168.682 2373.34 162.525 Q2373.34 156.159 2376.76 152.432 Q2380.21 148.682 2386.05 148.682 Q2391.28 148.682 2394.31 152.062 Q2397.37 155.418 2397.37 161.205 M2393.11 159.955 Q2393.06 156.46 2391.14 154.377 Q2389.24 152.293 2386.09 152.293 Q2382.53 152.293 2380.38 154.307 Q2378.25 156.321 2377.92 159.979 L2393.11 159.955 Z" fill="#000000" fill-rule="nonzero" fill-opacity="1"></path><path clip-path="url(#clip750)" d="M2421.42 153.243 L2421.42 139.215 L2425.68 139.215 L2425.68 175.233 L2421.42 175.233 L2421.42 171.344 Q2420.07 173.659 2418.01 174.793 Q2415.98 175.904 2413.11 175.904 Q2408.41 175.904 2405.44 172.155 Q2402.51 168.405 2402.51 162.293 Q2402.51 156.182 2405.44 152.432 Q2408.41 148.682 2413.11 148.682 Q2415.98 148.682 2418.01 149.817 Q2420.07 150.928 2421.42 153.243 M2406.9 162.293 Q2406.9 166.992 2408.82 169.678 Q2410.77 172.34 2414.15 172.34 Q2417.53 172.34 2419.47 169.678 Q2421.42 166.992 2421.42 162.293 Q2421.42 157.594 2419.47 154.932 Q2417.53 152.247 2414.15 152.247 Q2410.77 152.247 2408.82 154.932 Q2406.9 157.594 2406.9 162.293 Z" fill="#000000" fill-rule="nonzero" fill-opacity="1"></path><polyline clip-path="url(#clip750)" style="stroke:#000000; stroke-linecap:round; stroke-linejoin:round; stroke-width:4; stroke-opacity:1; fill:none" points="2530.05,1813.32 2530.05,47.2441 "></polyline>
<polyline clip-path="url(#clip750)" style="stroke:#000000; stroke-linecap:round; stroke-linejoin:round; stroke-width:4; stroke-opacity:1; fill:none" points="2530.05,1813.32 2511.16,1813.32 "></polyline>
<polyline clip-path="url(#clip750)" style="stroke:#000000; stroke-linecap:round; stroke-linejoin:round; stroke-width:4; stroke-opacity:1; fill:none" points="2530.05,1518.97 2511.16,1518.97 "></polyline>
<polyline clip-path="url(#clip750)" style="stroke:#000000; stroke-linecap:round; stroke-linejoin:round; stroke-width:4; stroke-opacity:1; fill:none" points="2530.05,1224.63 2511.16,1224.63 "></polyline>
<polyline clip-path="url(#clip750)" style="stroke:#000000; stroke-linecap:round; stroke-linejoin:round; stroke-width:4; stroke-opacity:1; fill:none" points="2530.05,930.281 2511.16,930.281 "></polyline>
<polyline clip-path="url(#clip750)" style="stroke:#000000; stroke-linecap:round; stroke-linejoin:round; stroke-width:4; stroke-opacity:1; fill:none" points="2530.05,635.935 2511.16,635.935 "></polyline>
<polyline clip-path="url(#clip750)" style="stroke:#000000; stroke-linecap:round; stroke-linejoin:round; stroke-width:4; stroke-opacity:1; fill:none" points="2530.05,341.59 2511.16,341.59 "></polyline>
<polyline clip-path="url(#clip750)" style="stroke:#000000; stroke-linecap:round; stroke-linejoin:round; stroke-width:4; stroke-opacity:1; fill:none" points="2530.05,47.2441 2511.16,47.2441 "></polyline>
<path clip-path="url(#clip750)" d="M2584 1799.12 Q2580.39 1799.12 2578.56 1802.68 Q2576.75 1806.22 2576.75 1813.35 Q2576.75 1820.46 2578.56 1824.02 Q2580.39 1827.56 2584 1827.56 Q2587.63 1827.56 2589.44 1824.02 Q2591.27 1820.46 2591.27 1813.35 Q2591.27 1806.22 2589.44 1802.68 Q2587.63 1799.12 2584 1799.12 M2584 1795.41 Q2589.81 1795.41 2592.86 1800.02 Q2595.94 1804.6 2595.94 1813.35 Q2595.94 1822.08 2592.86 1826.68 Q2589.81 1831.27 2584 1831.27 Q2578.19 1831.27 2575.11 1826.68 Q2572.05 1822.08 2572.05 1813.35 Q2572.05 1804.6 2575.11 1800.02 Q2578.19 1795.41 2584 1795.41 Z" fill="#000000" fill-rule="nonzero" fill-opacity="1"></path><path clip-path="url(#clip750)" d="M2577.68 1532.32 L2594 1532.32 L2594 1536.25 L2572.05 1536.25 L2572.05 1532.32 Q2574.72 1529.56 2579.3 1524.93 Q2583.91 1520.28 2585.09 1518.94 Q2587.33 1516.41 2588.21 1514.68 Q2589.11 1512.92 2589.11 1511.23 Q2589.11 1508.47 2587.17 1506.74 Q2585.25 1505 2582.15 1505 Q2579.95 1505 2577.49 1505.77 Q2575.06 1506.53 2572.29 1508.08 L2572.29 1503.36 Q2575.11 1502.22 2577.56 1501.65 Q2580.02 1501.07 2582.05 1501.07 Q2587.42 1501.07 2590.62 1503.75 Q2593.81 1506.44 2593.81 1510.93 Q2593.81 1513.06 2593 1514.98 Q2592.22 1516.88 2590.11 1519.47 Q2589.53 1520.14 2586.43 1523.36 Q2583.33 1526.55 2577.68 1532.32 Z" fill="#000000" fill-rule="nonzero" fill-opacity="1"></path><path clip-path="url(#clip750)" d="M2613.81 1504.77 Q2610.2 1504.77 2608.37 1508.33 Q2606.57 1511.88 2606.57 1519.01 Q2606.57 1526.11 2608.37 1529.68 Q2610.2 1533.22 2613.81 1533.22 Q2617.45 1533.22 2619.25 1529.68 Q2621.08 1526.11 2621.08 1519.01 Q2621.08 1511.88 2619.25 1508.33 Q2617.45 1504.77 2613.81 1504.77 M2613.81 1501.07 Q2619.62 1501.07 2622.68 1505.67 Q2625.76 1510.26 2625.76 1519.01 Q2625.76 1527.73 2622.68 1532.34 Q2619.62 1536.92 2613.81 1536.92 Q2608 1536.92 2604.92 1532.34 Q2601.87 1527.73 2601.87 1519.01 Q2601.87 1510.26 2604.92 1505.67 Q2608 1501.07 2613.81 1501.07 Z" fill="#000000" fill-rule="nonzero" fill-opacity="1"></path><path clip-path="url(#clip750)" d="M2643.98 1504.77 Q2640.36 1504.77 2638.54 1508.33 Q2636.73 1511.88 2636.73 1519.01 Q2636.73 1526.11 2638.54 1529.68 Q2640.36 1533.22 2643.98 1533.22 Q2647.61 1533.22 2649.42 1529.68 Q2651.24 1526.11 2651.24 1519.01 Q2651.24 1511.88 2649.42 1508.33 Q2647.61 1504.77 2643.98 1504.77 M2643.98 1501.07 Q2649.79 1501.07 2652.84 1505.67 Q2655.92 1510.26 2655.92 1519.01 Q2655.92 1527.73 2652.84 1532.34 Q2649.79 1536.92 2643.98 1536.92 Q2638.17 1536.92 2635.09 1532.34 Q2632.03 1527.73 2632.03 1519.01 Q2632.03 1510.26 2635.09 1505.67 Q2638.17 1501.07 2643.98 1501.07 Z" fill="#000000" fill-rule="nonzero" fill-opacity="1"></path><path clip-path="url(#clip750)" d="M2587.66 1211.42 L2575.85 1229.87 L2587.66 1229.87 L2587.66 1211.42 M2586.43 1207.35 L2592.31 1207.35 L2592.31 1229.87 L2597.24 1229.87 L2597.24 1233.76 L2592.31 1233.76 L2592.31 1241.91 L2587.66 1241.91 L2587.66 1233.76 L2572.05 1233.76 L2572.05 1229.24 L2586.43 1207.35 Z" fill="#000000" fill-rule="nonzero" fill-opacity="1"></path><path clip-path="url(#clip750)" d="M2614.97 1210.42 Q2611.36 1210.42 2609.53 1213.99 Q2607.73 1217.53 2607.73 1224.66 Q2607.73 1231.77 2609.53 1235.33 Q2611.36 1238.87 2614.97 1238.87 Q2618.61 1238.87 2620.41 1235.33 Q2622.24 1231.77 2622.24 1224.66 Q2622.24 1217.53 2620.41 1213.99 Q2618.61 1210.42 2614.97 1210.42 M2614.97 1206.72 Q2620.78 1206.72 2623.84 1211.33 Q2626.92 1215.91 2626.92 1224.66 Q2626.92 1233.39 2623.84 1237.99 Q2620.78 1242.58 2614.97 1242.58 Q2609.16 1242.58 2606.08 1237.99 Q2603.03 1233.39 2603.03 1224.66 Q2603.03 1215.91 2606.08 1211.33 Q2609.16 1206.72 2614.97 1206.72 Z" fill="#000000" fill-rule="nonzero" fill-opacity="1"></path><path clip-path="url(#clip750)" d="M2645.13 1210.42 Q2641.52 1210.42 2639.69 1213.99 Q2637.89 1217.53 2637.89 1224.66 Q2637.89 1231.77 2639.69 1235.33 Q2641.52 1238.87 2645.13 1238.87 Q2648.77 1238.87 2650.57 1235.33 Q2652.4 1231.77 2652.4 1224.66 Q2652.4 1217.53 2650.57 1213.99 Q2648.77 1210.42 2645.13 1210.42 M2645.13 1206.72 Q2650.94 1206.72 2654 1211.33 Q2657.08 1215.91 2657.08 1224.66 Q2657.08 1233.39 2654 1237.99 Q2650.94 1242.58 2645.13 1242.58 Q2639.32 1242.58 2636.24 1237.99 Q2633.19 1233.39 2633.19 1224.66 Q2633.19 1215.91 2636.24 1211.33 Q2639.32 1206.72 2645.13 1206.72 Z" fill="#000000" fill-rule="nonzero" fill-opacity="1"></path><path clip-path="url(#clip750)" d="M2584.39 928.417 Q2581.24 928.417 2579.39 930.57 Q2577.56 932.723 2577.56 936.473 Q2577.56 940.199 2579.39 942.375 Q2581.24 944.528 2584.39 944.528 Q2587.54 944.528 2589.37 942.375 Q2591.22 940.199 2591.22 936.473 Q2591.22 932.723 2589.37 930.57 Q2587.54 928.417 2584.39 928.417 M2593.67 913.764 L2593.67 918.024 Q2591.92 917.19 2590.11 916.751 Q2588.33 916.311 2586.57 916.311 Q2581.94 916.311 2579.49 919.436 Q2577.05 922.561 2576.71 928.88 Q2578.07 926.866 2580.13 925.801 Q2582.19 924.713 2584.67 924.713 Q2589.88 924.713 2592.89 927.885 Q2595.92 931.033 2595.92 936.473 Q2595.92 941.797 2592.77 945.014 Q2589.62 948.232 2584.39 948.232 Q2578.4 948.232 2575.23 943.649 Q2572.05 939.042 2572.05 930.315 Q2572.05 922.121 2575.94 917.26 Q2579.83 912.376 2586.38 912.376 Q2588.14 912.376 2589.92 912.723 Q2591.73 913.07 2593.67 913.764 Z" fill="#000000" fill-rule="nonzero" fill-opacity="1"></path><path clip-path="url(#clip750)" d="M2613.98 916.079 Q2610.36 916.079 2608.54 919.644 Q2606.73 923.186 2606.73 930.315 Q2606.73 937.422 2608.54 940.987 Q2610.36 944.528 2613.98 944.528 Q2617.61 944.528 2619.42 940.987 Q2621.24 937.422 2621.24 930.315 Q2621.24 923.186 2619.42 919.644 Q2617.61 916.079 2613.98 916.079 M2613.98 912.376 Q2619.79 912.376 2622.84 916.982 Q2625.92 921.565 2625.92 930.315 Q2625.92 939.042 2622.84 943.649 Q2619.79 948.232 2613.98 948.232 Q2608.17 948.232 2605.09 943.649 Q2602.03 939.042 2602.03 930.315 Q2602.03 921.565 2605.09 916.982 Q2608.17 912.376 2613.98 912.376 Z" fill="#000000" fill-rule="nonzero" fill-opacity="1"></path><path clip-path="url(#clip750)" d="M2644.14 916.079 Q2640.53 916.079 2638.7 919.644 Q2636.89 923.186 2636.89 930.315 Q2636.89 937.422 2638.7 940.987 Q2640.53 944.528 2644.14 944.528 Q2647.77 944.528 2649.58 940.987 Q2651.41 937.422 2651.41 930.315 Q2651.41 923.186 2649.58 919.644 Q2647.77 916.079 2644.14 916.079 M2644.14 912.376 Q2649.95 912.376 2653 916.982 Q2656.08 921.565 2656.08 930.315 Q2656.08 939.042 2653 943.649 Q2649.95 948.232 2644.14 948.232 Q2638.33 948.232 2635.25 943.649 Q2632.19 939.042 2632.19 930.315 Q2632.19 921.565 2635.25 916.982 Q2638.33 912.376 2644.14 912.376 Z" fill="#000000" fill-rule="nonzero" fill-opacity="1"></path><path clip-path="url(#clip750)" d="M2583.91 636.803 Q2580.57 636.803 2578.65 638.586 Q2576.75 640.368 2576.75 643.493 Q2576.75 646.618 2578.65 648.4 Q2580.57 650.183 2583.91 650.183 Q2587.24 650.183 2589.16 648.4 Q2591.08 646.595 2591.08 643.493 Q2591.08 640.368 2589.16 638.586 Q2587.26 636.803 2583.91 636.803 M2579.23 634.812 Q2576.22 634.072 2574.53 632.011 Q2572.86 629.951 2572.86 626.988 Q2572.86 622.845 2575.8 620.437 Q2578.77 618.03 2583.91 618.03 Q2589.07 618.03 2592.01 620.437 Q2594.95 622.845 2594.95 626.988 Q2594.95 629.951 2593.26 632.011 Q2591.59 634.072 2588.61 634.812 Q2591.98 635.599 2593.86 637.891 Q2595.76 640.183 2595.76 643.493 Q2595.76 648.516 2592.68 651.201 Q2589.62 653.886 2583.91 653.886 Q2578.19 653.886 2575.11 651.201 Q2572.05 648.516 2572.05 643.493 Q2572.05 640.183 2573.95 637.891 Q2575.85 635.599 2579.23 634.812 M2577.52 627.428 Q2577.52 630.113 2579.18 631.618 Q2580.87 633.123 2583.91 633.123 Q2586.92 633.123 2588.61 631.618 Q2590.32 630.113 2590.32 627.428 Q2590.32 624.743 2588.61 623.238 Q2586.92 621.734 2583.91 621.734 Q2580.87 621.734 2579.18 623.238 Q2577.52 624.743 2577.52 627.428 Z" fill="#000000" fill-rule="nonzero" fill-opacity="1"></path><path clip-path="url(#clip750)" d="M2614.07 621.734 Q2610.46 621.734 2608.63 625.299 Q2606.82 628.84 2606.82 635.97 Q2606.82 643.076 2608.63 646.641 Q2610.46 650.183 2614.07 650.183 Q2617.7 650.183 2619.51 646.641 Q2621.34 643.076 2621.34 635.97 Q2621.34 628.84 2619.51 625.299 Q2617.7 621.734 2614.07 621.734 M2614.07 618.03 Q2619.88 618.03 2622.93 622.637 Q2626.01 627.22 2626.01 635.97 Q2626.01 644.697 2622.93 649.303 Q2619.88 653.886 2614.07 653.886 Q2608.26 653.886 2605.18 649.303 Q2602.12 644.697 2602.12 635.97 Q2602.12 627.22 2605.18 622.637 Q2608.26 618.03 2614.07 618.03 Z" fill="#000000" fill-rule="nonzero" fill-opacity="1"></path><path clip-path="url(#clip750)" d="M2644.23 621.734 Q2640.62 621.734 2638.79 625.299 Q2636.98 628.84 2636.98 635.97 Q2636.98 643.076 2638.79 646.641 Q2640.62 650.183 2644.23 650.183 Q2647.86 650.183 2649.67 646.641 Q2651.5 643.076 2651.5 635.97 Q2651.5 628.84 2649.67 625.299 Q2647.86 621.734 2644.23 621.734 M2644.23 618.03 Q2650.04 618.03 2653.1 622.637 Q2656.17 627.22 2656.17 635.97 Q2656.17 644.697 2653.1 649.303 Q2650.04 653.886 2644.23 653.886 Q2638.42 653.886 2635.34 649.303 Q2632.29 644.697 2632.29 635.97 Q2632.29 627.22 2635.34 622.637 Q2638.42 618.03 2644.23 618.03 Z" fill="#000000" fill-rule="nonzero" fill-opacity="1"></path><path clip-path="url(#clip750)" d="M2572.73 354.934 L2580.36 354.934 L2580.36 328.569 L2572.05 330.235 L2572.05 325.976 L2580.32 324.31 L2584.99 324.31 L2584.99 354.934 L2592.63 354.934 L2592.63 358.87 L2572.73 358.87 L2572.73 354.934 Z" fill="#000000" fill-rule="nonzero" fill-opacity="1"></path><path clip-path="url(#clip750)" d="M2612.08 327.388 Q2608.47 327.388 2606.64 330.953 Q2604.83 334.495 2604.83 341.624 Q2604.83 348.731 2606.64 352.296 Q2608.47 355.837 2612.08 355.837 Q2615.71 355.837 2617.52 352.296 Q2619.35 348.731 2619.35 341.624 Q2619.35 334.495 2617.52 330.953 Q2615.71 327.388 2612.08 327.388 M2612.08 323.685 Q2617.89 323.685 2620.94 328.291 Q2624.02 332.874 2624.02 341.624 Q2624.02 350.351 2620.94 354.958 Q2617.89 359.541 2612.08 359.541 Q2606.27 359.541 2603.19 354.958 Q2600.13 350.351 2600.13 341.624 Q2600.13 332.874 2603.19 328.291 Q2606.27 323.685 2612.08 323.685 Z" fill="#000000" fill-rule="nonzero" fill-opacity="1"></path><path clip-path="url(#clip750)" d="M2642.24 327.388 Q2638.63 327.388 2636.8 330.953 Q2634.99 334.495 2634.99 341.624 Q2634.99 348.731 2636.8 352.296 Q2638.63 355.837 2642.24 355.837 Q2645.87 355.837 2647.68 352.296 Q2649.51 348.731 2649.51 341.624 Q2649.51 334.495 2647.68 330.953 Q2645.87 327.388 2642.24 327.388 M2642.24 323.685 Q2648.05 323.685 2651.1 328.291 Q2654.18 332.874 2654.18 341.624 Q2654.18 350.351 2651.1 354.958 Q2648.05 359.541 2642.24 359.541 Q2636.43 359.541 2633.35 354.958 Q2630.29 350.351 2630.29 341.624 Q2630.29 332.874 2633.35 328.291 Q2636.43 323.685 2642.24 323.685 Z" fill="#000000" fill-rule="nonzero" fill-opacity="1"></path><path clip-path="url(#clip750)" d="M2672.4 327.388 Q2668.79 327.388 2666.96 330.953 Q2665.16 334.495 2665.16 341.624 Q2665.16 348.731 2666.96 352.296 Q2668.79 355.837 2672.4 355.837 Q2676.04 355.837 2677.84 352.296 Q2679.67 348.731 2679.67 341.624 Q2679.67 334.495 2677.84 330.953 Q2676.04 327.388 2672.4 327.388 M2672.4 323.685 Q2678.21 323.685 2681.27 328.291 Q2684.35 332.874 2684.35 341.624 Q2684.35 350.351 2681.27 354.958 Q2678.21 359.541 2672.4 359.541 Q2666.59 359.541 2663.51 354.958 Q2660.46 350.351 2660.46 341.624 Q2660.46 332.874 2663.51 328.291 Q2666.59 323.685 2672.4 323.685 Z" fill="#000000" fill-rule="nonzero" fill-opacity="1"></path><path clip-path="url(#clip750)" d="M2572.73 60.5889 L2580.36 60.5889 L2580.36 34.2233 L2572.05 35.89 L2572.05 31.6308 L2580.32 29.9641 L2584.99 29.9641 L2584.99 60.5889 L2592.63 60.5889 L2592.63 64.5241 L2572.73 64.5241 L2572.73 60.5889 Z" fill="#000000" fill-rule="nonzero" fill-opacity="1"></path><path clip-path="url(#clip750)" d="M2606.11 60.5889 L2622.42 60.5889 L2622.42 64.5241 L2600.48 64.5241 L2600.48 60.5889 Q2603.14 57.8343 2607.73 53.2047 Q2612.33 48.552 2613.51 47.2094 Q2615.76 44.6862 2616.64 42.9501 Q2617.54 41.1909 2617.54 39.5011 Q2617.54 36.7465 2615.6 35.0104 Q2613.67 33.2743 2610.57 33.2743 Q2608.37 33.2743 2605.92 34.0381 Q2603.49 34.802 2600.71 36.3529 L2600.71 31.6308 Q2603.54 30.4965 2605.99 29.9178 Q2608.44 29.3391 2610.48 29.3391 Q2615.85 29.3391 2619.04 32.0243 Q2622.24 34.7094 2622.24 39.2002 Q2622.24 41.3298 2621.43 43.2511 Q2620.64 45.1492 2618.54 47.7418 Q2617.96 48.4131 2614.86 51.6306 Q2611.75 54.8251 2606.11 60.5889 Z" fill="#000000" fill-rule="nonzero" fill-opacity="1"></path><path clip-path="url(#clip750)" d="M2642.24 33.0428 Q2638.63 33.0428 2636.8 36.6076 Q2634.99 40.1492 2634.99 47.2788 Q2634.99 54.3853 2636.8 57.9501 Q2638.63 61.4917 2642.24 61.4917 Q2645.87 61.4917 2647.68 57.9501 Q2649.51 54.3853 2649.51 47.2788 Q2649.51 40.1492 2647.68 36.6076 Q2645.87 33.0428 2642.24 33.0428 M2642.24 29.3391 Q2648.05 29.3391 2651.1 33.9456 Q2654.18 38.5289 2654.18 47.2788 Q2654.18 56.0056 2651.1 60.6121 Q2648.05 65.1954 2642.24 65.1954 Q2636.43 65.1954 2633.35 60.6121 Q2630.29 56.0056 2630.29 47.2788 Q2630.29 38.5289 2633.35 33.9456 Q2636.43 29.3391 2642.24 29.3391 Z" fill="#000000" fill-rule="nonzero" fill-opacity="1"></path><path clip-path="url(#clip750)" d="M2672.4 33.0428 Q2668.79 33.0428 2666.96 36.6076 Q2665.16 40.1492 2665.16 47.2788 Q2665.16 54.3853 2666.96 57.9501 Q2668.79 61.4917 2672.4 61.4917 Q2676.04 61.4917 2677.84 57.9501 Q2679.67 54.3853 2679.67 47.2788 Q2679.67 40.1492 2677.84 36.6076 Q2676.04 33.0428 2672.4 33.0428 M2672.4 29.3391 Q2678.21 29.3391 2681.27 33.9456 Q2684.35 38.5289 2684.35 47.2788 Q2684.35 56.0056 2681.27 60.6121 Q2678.21 65.1954 2672.4 65.1954 Q2666.59 65.1954 2663.51 60.6121 Q2660.46 56.0056 2660.46 47.2788 Q2660.46 38.5289 2663.51 33.9456 Q2666.59 29.3391 2672.4 29.3391 Z" fill="#000000" fill-rule="nonzero" fill-opacity="1"></path><path clip-path="url(#clip750)" d="M2735.85 1247.23 L2735.85 1240.8 L2783.37 1240.8 L2783.37 1247.23 L2735.85 1247.23 Z" fill="#000000" fill-rule="nonzero" fill-opacity="1"></path><path clip-path="url(#clip750)" d="M2753.2 1207.6 Q2752.62 1208.59 2752.37 1209.77 Q2752.08 1210.91 2752.08 1212.31 Q2752.08 1217.28 2755.33 1219.95 Q2758.54 1222.59 2764.59 1222.59 L2783.37 1222.59 L2783.37 1228.48 L2747.72 1228.48 L2747.72 1222.59 L2753.26 1222.59 Q2750.01 1220.75 2748.45 1217.79 Q2746.86 1214.83 2746.86 1210.59 Q2746.86 1209.99 2746.96 1209.26 Q2747.02 1208.53 2747.18 1207.63 L2753.2 1207.6 Z" fill="#000000" fill-rule="nonzero" fill-opacity="1"></path><path clip-path="url(#clip750)" d="M2753.2 1181.95 Q2752.62 1182.94 2752.37 1184.11 Q2752.08 1185.26 2752.08 1186.66 Q2752.08 1191.62 2755.33 1194.3 Q2758.54 1196.94 2764.59 1196.94 L2783.37 1196.94 L2783.37 1202.83 L2747.72 1202.83 L2747.72 1196.94 L2753.26 1196.94 Q2750.01 1195.09 2748.45 1192.13 Q2746.86 1189.17 2746.86 1184.94 Q2746.86 1184.34 2746.96 1183.6 Q2747.02 1182.87 2747.18 1181.98 L2753.2 1181.95 Z" fill="#000000" fill-rule="nonzero" fill-opacity="1"></path><path clip-path="url(#clip750)" d="M2765.45 1159.61 Q2765.45 1166.7 2767.07 1169.44 Q2768.7 1172.18 2772.61 1172.18 Q2775.73 1172.18 2777.58 1170.14 Q2779.39 1168.07 2779.39 1164.54 Q2779.39 1159.67 2775.95 1156.74 Q2772.48 1153.78 2766.76 1153.78 L2765.45 1153.78 L2765.45 1159.61 M2763.03 1147.92 L2783.37 1147.92 L2783.37 1153.78 L2777.96 1153.78 Q2781.21 1155.79 2782.76 1158.78 Q2784.29 1161.77 2784.29 1166.1 Q2784.29 1171.57 2781.24 1174.82 Q2778.15 1178.03 2772.99 1178.03 Q2766.98 1178.03 2763.92 1174.02 Q2760.87 1169.98 2760.87 1161.99 L2760.87 1153.78 L2760.29 1153.78 Q2756.25 1153.78 2754.06 1156.45 Q2751.83 1159.1 2751.83 1163.9 Q2751.83 1166.96 2752.56 1169.85 Q2753.29 1172.75 2754.76 1175.42 L2749.34 1175.42 Q2748.1 1172.21 2747.5 1169.19 Q2746.86 1166.16 2746.86 1163.3 Q2746.86 1155.56 2750.87 1151.74 Q2754.88 1147.92 2763.03 1147.92 Z" fill="#000000" fill-rule="nonzero" fill-opacity="1"></path><path clip-path="url(#clip750)" d="M2753.13 1112.4 L2733.84 1112.4 L2733.84 1106.55 L2783.37 1106.55 L2783.37 1112.4 L2778.02 1112.4 Q2781.21 1114.25 2782.76 1117.08 Q2784.29 1119.88 2784.29 1123.83 Q2784.29 1130.29 2779.14 1134.37 Q2773.98 1138.41 2765.58 1138.41 Q2757.17 1138.41 2752.02 1134.37 Q2746.86 1130.29 2746.86 1123.83 Q2746.86 1119.88 2748.42 1117.08 Q2749.95 1114.25 2753.13 1112.4 M2765.58 1132.36 Q2772.04 1132.36 2775.73 1129.72 Q2779.39 1127.04 2779.39 1122.4 Q2779.39 1117.75 2775.73 1115.08 Q2772.04 1112.4 2765.58 1112.4 Q2759.12 1112.4 2755.46 1115.08 Q2751.76 1117.75 2751.76 1122.4 Q2751.76 1127.04 2755.46 1129.72 Q2759.12 1132.36 2765.58 1132.36 Z" fill="#000000" fill-rule="nonzero" fill-opacity="1"></path><path clip-path="url(#clip750)" d="M2747.72 1094.48 L2747.72 1088.63 L2783.37 1088.63 L2783.37 1094.48 L2747.72 1094.48 M2733.84 1094.48 L2733.84 1088.63 L2741.26 1088.63 L2741.26 1094.48 L2733.84 1094.48 Z" fill="#000000" fill-rule="nonzero" fill-opacity="1"></path><path clip-path="url(#clip750)" d="M2765.45 1060.17 Q2765.45 1067.27 2767.07 1070.01 Q2768.7 1072.75 2772.61 1072.75 Q2775.73 1072.75 2777.58 1070.71 Q2779.39 1068.64 2779.39 1065.11 Q2779.39 1060.24 2775.95 1057.31 Q2772.48 1054.35 2766.76 1054.35 L2765.45 1054.35 L2765.45 1060.17 M2763.03 1048.49 L2783.37 1048.49 L2783.37 1054.35 L2777.96 1054.35 Q2781.21 1056.35 2782.76 1059.35 Q2784.29 1062.34 2784.29 1066.67 Q2784.29 1072.14 2781.24 1075.39 Q2778.15 1078.6 2772.99 1078.6 Q2766.98 1078.6 2763.92 1074.59 Q2760.87 1070.55 2760.87 1062.56 L2760.87 1054.35 L2760.29 1054.35 Q2756.25 1054.35 2754.06 1057.02 Q2751.83 1059.66 2751.83 1064.47 Q2751.83 1067.53 2752.56 1070.42 Q2753.29 1073.32 2754.76 1075.99 L2749.34 1075.99 Q2748.1 1072.78 2747.5 1069.75 Q2746.86 1066.73 2746.86 1063.86 Q2746.86 1056.13 2750.87 1052.31 Q2754.88 1048.49 2763.03 1048.49 Z" fill="#000000" fill-rule="nonzero" fill-opacity="1"></path><path clip-path="url(#clip750)" d="M2761.85 1006.8 L2783.37 1006.8 L2783.37 1012.65 L2762.04 1012.65 Q2756.98 1012.65 2754.47 1014.63 Q2751.95 1016.6 2751.95 1020.55 Q2751.95 1025.29 2754.98 1028.03 Q2758 1030.76 2763.22 1030.76 L2783.37 1030.76 L2783.37 1036.65 L2747.72 1036.65 L2747.72 1030.76 L2753.26 1030.76 Q2750.05 1028.66 2748.45 1025.83 Q2746.86 1022.97 2746.86 1019.24 Q2746.86 1013.1 2750.68 1009.95 Q2754.47 1006.8 2761.85 1006.8 Z" fill="#000000" fill-rule="nonzero" fill-opacity="1"></path><path clip-path="url(#clip750)" d="M2749.09 969.461 L2754.56 969.461 Q2753.2 971.944 2752.53 974.459 Q2751.83 976.941 2751.83 979.487 Q2751.83 985.185 2755.46 988.336 Q2759.05 991.487 2765.58 991.487 Q2772.1 991.487 2775.73 988.336 Q2779.33 985.185 2779.33 979.487 Q2779.33 976.941 2778.66 974.459 Q2777.96 971.944 2776.59 969.461 L2782 969.461 Q2783.15 971.912 2783.72 974.554 Q2784.29 977.164 2784.29 980.124 Q2784.29 988.177 2779.23 992.919 Q2774.17 997.662 2765.58 997.662 Q2756.86 997.662 2751.86 992.887 Q2746.86 988.081 2746.86 979.742 Q2746.86 977.037 2747.44 974.459 Q2747.98 971.88 2749.09 969.461 Z" fill="#000000" fill-rule="nonzero" fill-opacity="1"></path><path clip-path="url(#clip750)" d="M2764.08 928.785 L2766.95 928.785 L2766.95 955.712 Q2772.99 955.33 2776.18 952.083 Q2779.33 948.805 2779.33 942.98 Q2779.33 939.606 2778.5 936.455 Q2777.67 933.272 2776.02 930.153 L2781.56 930.153 Q2782.89 933.304 2783.59 936.614 Q2784.29 939.925 2784.29 943.33 Q2784.29 951.86 2779.33 956.857 Q2774.36 961.823 2765.9 961.823 Q2757.14 961.823 2752.02 957.112 Q2746.86 952.37 2746.86 944.349 Q2746.86 937.156 2751.51 932.986 Q2756.12 928.785 2764.08 928.785 M2762.36 934.641 Q2757.56 934.705 2754.69 937.346 Q2751.83 939.956 2751.83 944.285 Q2751.83 949.187 2754.6 952.147 Q2757.37 955.075 2762.39 955.521 L2762.36 934.641 Z" fill="#000000" fill-rule="nonzero" fill-opacity="1"></path><path clip-path="url(#clip750)" d="M2733.91 884.384 Q2741.23 888.649 2748.39 890.718 Q2755.55 892.787 2762.9 892.787 Q2770.26 892.787 2777.48 890.718 Q2784.67 888.617 2791.96 884.384 L2791.96 889.476 Q2784.48 894.251 2777.26 896.638 Q2770.03 898.993 2762.9 898.993 Q2755.81 898.993 2748.61 896.638 Q2741.42 894.282 2733.91 889.476 L2733.91 884.384 Z" fill="#000000" fill-rule="nonzero" fill-opacity="1"></path><path clip-path="url(#clip750)" d="M2735.85 877 L2735.85 870.507 L2776.02 860.512 L2735.85 850.55 L2735.85 843.325 L2776.02 833.331 L2735.85 823.368 L2735.85 816.844 L2783.37 828.779 L2783.37 836.864 L2742.12 846.89 L2783.37 857.011 L2783.37 865.096 L2735.85 877 Z" fill="#000000" fill-rule="nonzero" fill-opacity="1"></path><path clip-path="url(#clip750)" d="M2735.85 798.16 L2735.85 792.749 L2789.42 809.3 L2789.42 814.711 L2735.85 798.16 Z" fill="#000000" fill-rule="nonzero" fill-opacity="1"></path><path clip-path="url(#clip750)" d="M2754.56 758.852 Q2750.62 756.656 2748.74 753.6 Q2746.86 750.545 2746.86 746.407 Q2746.86 740.837 2750.78 737.813 Q2754.66 734.79 2761.85 734.79 L2783.37 734.79 L2783.37 740.678 L2762.04 740.678 Q2756.92 740.678 2754.44 742.492 Q2751.95 744.306 2751.95 748.03 Q2751.95 752.582 2754.98 755.224 Q2758 757.865 2763.22 757.865 L2783.37 757.865 L2783.37 763.754 L2762.04 763.754 Q2756.89 763.754 2754.44 765.568 Q2751.95 767.382 2751.95 771.17 Q2751.95 775.658 2755.01 778.299 Q2758.03 780.941 2763.22 780.941 L2783.37 780.941 L2783.37 786.829 L2747.72 786.829 L2747.72 780.941 L2753.26 780.941 Q2749.98 778.936 2748.42 776.135 Q2746.86 773.334 2746.86 769.483 Q2746.86 765.6 2748.84 762.894 Q2750.81 760.157 2754.56 758.852 Z" fill="#000000" fill-rule="nonzero" fill-opacity="1"></path><path clip-path="url(#clip750)" d="M2735.85 698.823 L2753.58 681.541 L2753.58 687.938 L2741.01 701.943 L2753.58 715.947 L2753.58 722.345 L2735.85 705.062 L2735.85 698.823 Z" fill="#000000" fill-rule="nonzero" fill-opacity="1"></path><path clip-path="url(#clip750)" d="M2777.96 662.125 L2777.96 639.686 L2783.37 639.686 L2783.37 669.859 L2777.96 669.859 Q2774.17 666.199 2767.81 659.897 Q2761.41 653.563 2759.56 651.94 Q2756.09 648.853 2753.71 647.643 Q2751.29 646.402 2748.96 646.402 Q2745.18 646.402 2742.79 649.075 Q2740.4 651.717 2740.4 655.982 Q2740.4 659.006 2741.45 662.38 Q2742.5 665.722 2744.63 669.541 L2738.14 669.541 Q2736.58 665.658 2735.79 662.284 Q2734.99 658.91 2734.99 656.11 Q2734.99 648.725 2738.68 644.333 Q2742.37 639.941 2748.55 639.941 Q2751.48 639.941 2754.12 641.055 Q2756.73 642.137 2760.29 645.033 Q2761.22 645.829 2765.64 650.094 Q2770.03 654.359 2777.96 662.125 Z" fill="#000000" fill-rule="nonzero" fill-opacity="1"></path><path clip-path="url(#clip750)" d="M2733.91 627.941 L2733.91 622.849 Q2741.42 618.074 2748.61 615.719 Q2755.81 613.332 2762.9 613.332 Q2770.03 613.332 2777.26 615.719 Q2784.48 618.074 2791.96 622.849 L2791.96 627.941 Q2784.67 623.708 2777.48 621.639 Q2770.26 619.539 2762.9 619.539 Q2755.55 619.539 2748.39 621.639 Q2741.23 623.708 2733.91 627.941 Z" fill="#000000" fill-rule="nonzero" fill-opacity="1"></path><polyline clip-path="url(#clip752)" style="stroke:#ffc125; stroke-linecap:round; stroke-linejoin:round; stroke-width:4; stroke-opacity:1; fill:none" points="248.011,1813.32 261.277,1813.32 274.544,1813.32 287.811,1813.32 301.078,1813.32 314.345,1813.32 327.612,1813.32 340.879,1813.32 354.146,1813.32 367.413,1813.32 380.68,1813.32 393.947,1813.32 407.214,1813.32 420.481,1813.32 433.747,1813.32 447.014,1360.02 460.281,1755.92 473.548,1652.9 486.815,1221.68 500.082,1688.22 513.349,1371.8 526.616,1798.6 539.883,1813.32 553.15,1813.32 566.417,1813.32 579.684,1813.32 592.951,1813.32 606.218,1813.32 619.484,1813.32 632.751,1813.32 646.018,1813.32 659.285,1813.32 672.552,1813.32 685.819,1813.32 699.086,1813.32 712.353,1813.32 725.62,1813.32 738.887,1813.32 752.154,1813.32 765.421,1813.32 778.688,1813.32 791.954,1813.32 805.221,1813.32 818.488,1813.32 831.755,1813.32 845.022,1811.85 858.289,1813.32 871.556,1792.71 884.823,1813.32 898.09,1813.32 911.357,1813.32 924.624,1813.32 937.891,1813.32 951.158,1813.32 964.425,1813.32 977.691,1813.32 990.958,1813.32 1004.23,1813.32 1017.49,1813.32 1030.76,1813.32 1044.03,1813.32 1057.29,1813.32 1070.56,1813.32 1083.83,808.127 1097.09,463.743 1110.36,326.872 1123.63,266.531 1136.89,248.871 1150.16,265.06 1163.43,322.457 1176.7,450.497 1189.96,775.749 1203.23,1813.32 1216.5,1813.32 1229.76,1813.32 1243.03,1813.32 1256.3,1813.32 1269.56,1813.32 1282.83,1813.32 1296.1,1813.32 1309.36,1813.32 1322.63,1813.32 1335.9,1813.32 1349.17,1813.32 1362.43,1813.32 1375.7,1813.32 1388.97,1813.32 1402.23,800.769 1415.5,459.328 1428.77,326.872 1442.03,269.475 1455.3,251.814 1468.57,266.531 1481.83,322.457 1495.1,449.026 1508.37,771.334 1521.64,1813.32 1534.9,1813.32 1548.17,1813.32 1561.44,1813.32 1574.7,1813.32 1587.97,1813.32 1601.24,1813.32 1614.5,1813.32 1627.77,1813.32 1641.04,1813.32 1654.3,1813.32 1667.57,1813.32 1680.84,1813.32 1694.11,1813.32 1707.37,1813.32 1720.64,1742.67 1733.91,1813.32 1747.17,1813.32 1760.44,1798.6 1773.71,1801.54 1786.97,1805.96 1800.24,426.95 1813.51,1813.32 1826.77,1630.82 1840.04,1813.32 1853.31,1813.32 1866.58,1813.32 1879.84,1813.32 1893.11,1813.32 1906.38,1813.32 1919.64,1813.32 1932.91,1813.32 1946.18,1813.32 1959.44,1813.32 1972.71,1813.32 1985.98,1813.32 1999.24,1813.32 2012.51,1813.32 2025.78,1813.32 2039.05,1813.32 2052.31,1813.32 2065.58,1807.43 2078.85,1813.32 2092.11,1800.07 2105.38,1813.32 2118.65,1813.32 2131.91,1813.32 2145.18,875.827 2158.45,1813.32 2171.71,1813.32 2184.98,1813.32 2198.25,1813.32 2211.52,1813.32 2224.78,1813.32 2238.05,1813.32 2251.32,1813.32 2264.58,1813.32 2277.85,1813.32 2291.12,1813.32 2304.38,1813.32 2317.65,1813.32 2330.92,1813.32 2344.18,1813.32 2357.45,1558.71 2370.72,1813.32 2383.99,421.063 2397.25,360.722 2410.52,1813.32 2423.79,356.307 2437.05,412.232 2450.32,549.103 2463.59,862.581 "></polyline>
<path clip-path="url(#clip750)" d="M259.827 209.793 L726.274 209.793 L726.274 106.113 L259.827 106.113  Z" fill="#ffffff" fill-rule="evenodd" fill-opacity="1"></path>
<polyline clip-path="url(#clip750)" style="stroke:#000000; stroke-linecap:round; stroke-linejoin:round; stroke-width:4; stroke-opacity:1; fill:none" points="259.827,209.793 726.274,209.793 726.274,106.113 259.827,106.113 259.827,209.793 "></polyline>
<polyline clip-path="url(#clip750)" style="stroke:#ffc125; stroke-linecap:round; stroke-linejoin:round; stroke-width:4; stroke-opacity:1; fill:none" points="285.921,157.953 442.489,157.953 "></polyline>
<path clip-path="url(#clip750)" d="M468.583 140.673 L473.259 140.673 L473.259 175.233 L468.583 175.233 L468.583 140.673 Z" fill="#000000" fill-rule="nonzero" fill-opacity="1"></path><path clip-path="url(#clip750)" d="M497.403 153.289 Q496.685 152.872 495.829 152.687 Q494.995 152.479 493.977 152.479 Q490.366 152.479 488.421 154.84 Q486.5 157.178 486.5 161.576 L486.5 175.233 L482.218 175.233 L482.218 149.307 L486.5 149.307 L486.5 153.335 Q487.843 150.974 489.995 149.84 Q492.148 148.682 495.227 148.682 Q495.667 148.682 496.199 148.752 Q496.731 148.798 497.38 148.914 L497.403 153.289 Z" fill="#000000" fill-rule="nonzero" fill-opacity="1"></path><path clip-path="url(#clip750)" d="M516.06 153.289 Q515.342 152.872 514.486 152.687 Q513.653 152.479 512.634 152.479 Q509.023 152.479 507.079 154.84 Q505.157 157.178 505.157 161.576 L505.157 175.233 L500.875 175.233 L500.875 149.307 L505.157 149.307 L505.157 153.335 Q506.5 150.974 508.653 149.84 Q510.805 148.682 513.884 148.682 Q514.324 148.682 514.856 148.752 Q515.389 148.798 516.037 148.914 L516.06 153.289 Z" fill="#000000" fill-rule="nonzero" fill-opacity="1"></path><path clip-path="url(#clip750)" d="M532.31 162.201 Q527.148 162.201 525.157 163.381 Q523.167 164.562 523.167 167.409 Q523.167 169.678 524.648 171.02 Q526.153 172.34 528.722 172.34 Q532.264 172.34 534.393 169.84 Q536.546 167.317 536.546 163.15 L536.546 162.201 L532.31 162.201 M540.805 160.442 L540.805 175.233 L536.546 175.233 L536.546 171.298 Q535.088 173.659 532.912 174.793 Q530.736 175.904 527.588 175.904 Q523.606 175.904 521.245 173.682 Q518.907 171.437 518.907 167.687 Q518.907 163.312 521.824 161.09 Q524.764 158.868 530.574 158.868 L536.546 158.868 L536.546 158.451 Q536.546 155.511 534.602 153.914 Q532.68 152.293 529.185 152.293 Q526.963 152.293 524.856 152.826 Q522.75 153.358 520.805 154.423 L520.805 150.488 Q523.143 149.585 525.342 149.145 Q527.541 148.682 529.625 148.682 Q535.25 148.682 538.028 151.599 Q540.805 154.516 540.805 160.442 Z" fill="#000000" fill-rule="nonzero" fill-opacity="1"></path><path clip-path="url(#clip750)" d="M566.639 153.243 L566.639 139.215 L570.898 139.215 L570.898 175.233 L566.639 175.233 L566.639 171.344 Q565.296 173.659 563.236 174.793 Q561.199 175.904 558.328 175.904 Q553.629 175.904 550.666 172.155 Q547.727 168.405 547.727 162.293 Q547.727 156.182 550.666 152.432 Q553.629 148.682 558.328 148.682 Q561.199 148.682 563.236 149.817 Q565.296 150.928 566.639 153.243 M552.125 162.293 Q552.125 166.992 554.046 169.678 Q555.99 172.34 559.37 172.34 Q562.75 172.34 564.694 169.678 Q566.639 166.992 566.639 162.293 Q566.639 157.594 564.694 154.932 Q562.75 152.247 559.37 152.247 Q555.99 152.247 554.046 154.932 Q552.125 157.594 552.125 162.293 Z" fill="#000000" fill-rule="nonzero" fill-opacity="1"></path><path clip-path="url(#clip750)" d="M579.671 149.307 L583.93 149.307 L583.93 175.233 L579.671 175.233 L579.671 149.307 M579.671 139.215 L583.93 139.215 L583.93 144.608 L579.671 144.608 L579.671 139.215 Z" fill="#000000" fill-rule="nonzero" fill-opacity="1"></path><path clip-path="url(#clip750)" d="M604.624 162.201 Q599.462 162.201 597.472 163.381 Q595.481 164.562 595.481 167.409 Q595.481 169.678 596.962 171.02 Q598.467 172.34 601.036 172.34 Q604.578 172.34 606.708 169.84 Q608.86 167.317 608.86 163.15 L608.86 162.201 L604.624 162.201 M613.12 160.442 L613.12 175.233 L608.86 175.233 L608.86 171.298 Q607.402 173.659 605.226 174.793 Q603.05 175.904 599.902 175.904 Q595.921 175.904 593.56 173.682 Q591.222 171.437 591.222 167.687 Q591.222 163.312 594.138 161.09 Q597.078 158.868 602.888 158.868 L608.86 158.868 L608.86 158.451 Q608.86 155.511 606.916 153.914 Q604.995 152.293 601.499 152.293 Q599.277 152.293 597.171 152.826 Q595.064 153.358 593.12 154.423 L593.12 150.488 Q595.458 149.585 597.657 149.145 Q599.856 148.682 601.939 148.682 Q607.564 148.682 610.342 151.599 Q613.12 154.516 613.12 160.442 Z" fill="#000000" fill-rule="nonzero" fill-opacity="1"></path><path clip-path="url(#clip750)" d="M643.444 159.585 L643.444 175.233 L639.184 175.233 L639.184 159.724 Q639.184 156.043 637.749 154.215 Q636.314 152.386 633.444 152.386 Q629.995 152.386 628.004 154.585 Q626.013 156.784 626.013 160.58 L626.013 175.233 L621.731 175.233 L621.731 149.307 L626.013 149.307 L626.013 153.335 Q627.541 150.997 629.601 149.84 Q631.684 148.682 634.393 148.682 Q638.86 148.682 641.152 151.46 Q643.444 154.215 643.444 159.585 Z" fill="#000000" fill-rule="nonzero" fill-opacity="1"></path><path clip-path="url(#clip750)" d="M670.596 150.303 L670.596 154.284 Q668.791 153.289 666.962 152.803 Q665.156 152.293 663.305 152.293 Q659.161 152.293 656.87 154.932 Q654.578 157.548 654.578 162.293 Q654.578 167.039 656.87 169.678 Q659.161 172.293 663.305 172.293 Q665.156 172.293 666.962 171.807 Q668.791 171.298 670.596 170.303 L670.596 174.238 Q668.814 175.071 666.893 175.488 Q664.994 175.904 662.842 175.904 Q656.985 175.904 653.536 172.224 Q650.087 168.543 650.087 162.293 Q650.087 155.951 653.559 152.317 Q657.055 148.682 663.119 148.682 Q665.087 148.682 666.962 149.099 Q668.837 149.493 670.596 150.303 Z" fill="#000000" fill-rule="nonzero" fill-opacity="1"></path><path clip-path="url(#clip750)" d="M700.179 161.205 L700.179 163.289 L680.596 163.289 Q680.874 167.687 683.235 170.002 Q685.619 172.293 689.855 172.293 Q692.309 172.293 694.601 171.692 Q696.916 171.09 699.184 169.886 L699.184 173.914 Q696.892 174.886 694.485 175.395 Q692.078 175.904 689.601 175.904 Q683.397 175.904 679.763 172.293 Q676.152 168.682 676.152 162.525 Q676.152 156.159 679.578 152.432 Q683.027 148.682 688.86 148.682 Q694.092 148.682 697.124 152.062 Q700.179 155.418 700.179 161.205 M695.92 159.955 Q695.874 156.46 693.953 154.377 Q692.054 152.293 688.906 152.293 Q685.342 152.293 683.189 154.307 Q681.059 156.321 680.735 159.979 L695.92 159.955 Z" fill="#000000" fill-rule="nonzero" fill-opacity="1"></path></svg>