<svg xmlns="http://www.w3.org/2000/svg" xmlns:xlink="http://www.w3.org/1999/xlink" width="700" height="500" viewBox="0 0 2800 2000">
<defs>
  <clipPath id="clip350">
    <rect x="0" y="0" width="2800" height="2000"></rect>
  </clipPath>
</defs>
<path clip-path="url(#clip350)" d="M0 2000 L2800 2000 L2800 -4.44089e-14 L0 -4.44089e-14  Z" fill="#ffffff" fill-rule="evenodd" fill-opacity="1"></path>
<defs>
  <clipPath id="clip351">
    <rect x="560" y="0" width="1961" height="1961"></rect>
  </clipPath>
</defs>
<path clip-path="url(#clip350)" d="M239.784 1813.32 L2752.76 1813.32 L2752.76 47.2441 L239.784 47.2441  Z" fill="#ffffff" fill-rule="evenodd" fill-opacity="1"></path>
<defs>
  <clipPath id="clip352">
    <rect x="239" y="47" width="2514" height="1767"></rect>
  </clipPath>
</defs>
<polyline clip-path="url(#clip352)" style="stroke:#000000; stroke-linecap:round; stroke-linejoin:round; stroke-width:2; stroke-opacity:0.1; fill:none" points="239.784,1813.32 239.784,47.2441 "></polyline>
<polyline clip-path="url(#clip352)" style="stroke:#000000; stroke-linecap:round; stroke-linejoin:round; stroke-width:2; stroke-opacity:0.1; fill:none" points="987.692,1813.32 987.692,47.2441 "></polyline>
<polyline clip-path="url(#clip352)" style="stroke:#000000; stroke-linecap:round; stroke-linejoin:round; stroke-width:2; stroke-opacity:0.1; fill:none" points="1735.6,1813.32 1735.6,47.2441 "></polyline>
<polyline clip-path="url(#clip352)" style="stroke:#000000; stroke-linecap:round; stroke-linejoin:round; stroke-width:2; stroke-opacity:0.1; fill:none" points="2483.51,1813.32 2483.51,47.2441 "></polyline>
<polyline clip-path="url(#clip352)" style="stroke:#000000; stroke-linecap:round; stroke-linejoin:round; stroke-width:2; stroke-opacity:0.1; fill:none" points="239.784,1813.32 2752.76,1813.32 "></polyline>
<polyline clip-path="url(#clip352)" style="stroke:#000000; stroke-linecap:round; stroke-linejoin:round; stroke-width:2; stroke-opacity:0.1; fill:none" points="239.784,1518.97 2752.76,1518.97 "></polyline>
<polyline clip-path="url(#clip352)" style="stroke:#000000; stroke-linecap:round; stroke-linejoin:round; stroke-width:2; stroke-opacity:0.1; fill:none" points="239.784,1224.63 2752.76,1224.63 "></polyline>
<polyline clip-path="url(#clip352)" style="stroke:#000000; stroke-linecap:round; stroke-linejoin:round; stroke-width:2; stroke-opacity:0.1; fill:none" points="239.784,930.281 2752.76,930.281 "></polyline>
<polyline clip-path="url(#clip352)" style="stroke:#000000; stroke-linecap:round; stroke-linejoin:round; stroke-width:2; stroke-opacity:0.1; fill:none" points="239.784,635.935 2752.76,635.935 "></polyline>
<polyline clip-path="url(#clip352)" style="stroke:#000000; stroke-linecap:round; stroke-linejoin:round; stroke-width:2; stroke-opacity:0.1; fill:none" points="239.784,341.59 2752.76,341.59 "></polyline>
<polyline clip-path="url(#clip352)" style="stroke:#000000; stroke-linecap:round; stroke-linejoin:round; stroke-width:2; stroke-opacity:0.1; fill:none" points="239.784,47.2441 2752.76,47.2441 "></polyline>
<polyline clip-path="url(#clip350)" style="stroke:#000000; stroke-linecap:round; stroke-linejoin:round; stroke-width:4; stroke-opacity:1; fill:none" points="239.784,1813.32 2752.76,1813.32 "></polyline>
<polyline clip-path="url(#clip350)" style="stroke:#000000; stroke-linecap:round; stroke-linejoin:round; stroke-width:4; stroke-opacity:1; fill:none" points="239.784,1813.32 239.784,1794.42 "></polyline>
<polyline clip-path="url(#clip350)" style="stroke:#000000; stroke-linecap:round; stroke-linejoin:round; stroke-width:4; stroke-opacity:1; fill:none" points="987.692,1813.32 987.692,1794.42 "></polyline>
<polyline clip-path="url(#clip350)" style="stroke:#000000; stroke-linecap:round; stroke-linejoin:round; stroke-width:4; stroke-opacity:1; fill:none" points="1735.6,1813.32 1735.6,1794.42 "></polyline>
<polyline clip-path="url(#clip350)" style="stroke:#000000; stroke-linecap:round; stroke-linejoin:round; stroke-width:4; stroke-opacity:1; fill:none" points="2483.51,1813.32 2483.51,1794.42 "></polyline>
<path clip-path="url(#clip350)" d="M239.784 1847.44 Q236.173 1847.44 234.344 1851 Q232.538 1854.54 232.538 1861.67 Q232.538 1868.78 234.344 1872.34 Q236.173 1875.88 239.784 1875.88 Q243.418 1875.88 245.223 1872.34 Q247.052 1868.78 247.052 1861.67 Q247.052 1854.54 245.223 1851 Q243.418 1847.44 239.784 1847.44 M239.784 1843.73 Q245.594 1843.73 248.649 1848.34 Q251.728 1852.92 251.728 1861.67 Q251.728 1870.4 248.649 1875 Q245.594 1879.59 239.784 1879.59 Q233.973 1879.59 230.895 1875 Q227.839 1870.4 227.839 1861.67 Q227.839 1852.92 230.895 1848.34 Q233.973 1843.73 239.784 1843.73 Z" fill="#000000" fill-rule="nonzero" fill-opacity="1"></path><path clip-path="url(#clip350)" d="M962.391 1844.36 L980.748 1844.36 L980.748 1848.29 L966.674 1848.29 L966.674 1856.76 Q967.692 1856.42 968.711 1856.26 Q969.729 1856.07 970.748 1856.07 Q976.535 1856.07 979.914 1859.24 Q983.294 1862.41 983.294 1867.83 Q983.294 1873.41 979.822 1876.51 Q976.35 1879.59 970.03 1879.59 Q967.854 1879.59 965.586 1879.22 Q963.34 1878.85 960.933 1878.11 L960.933 1873.41 Q963.016 1874.54 965.238 1875.1 Q967.461 1875.65 969.938 1875.65 Q973.942 1875.65 976.28 1873.55 Q978.618 1871.44 978.618 1867.83 Q978.618 1864.22 976.28 1862.11 Q973.942 1860.01 969.938 1860.01 Q968.063 1860.01 966.188 1860.42 Q964.336 1860.84 962.391 1861.72 L962.391 1844.36 Z" fill="#000000" fill-rule="nonzero" fill-opacity="1"></path><path clip-path="url(#clip350)" d="M1002.51 1847.44 Q998.896 1847.44 997.067 1851 Q995.261 1854.54 995.261 1861.67 Q995.261 1868.78 997.067 1872.34 Q998.896 1875.88 1002.51 1875.88 Q1006.14 1875.88 1007.95 1872.34 Q1009.78 1868.78 1009.78 1861.67 Q1009.78 1854.54 1007.95 1851 Q1006.14 1847.44 1002.51 1847.44 M1002.51 1843.73 Q1008.32 1843.73 1011.37 1848.34 Q1014.45 1852.92 1014.45 1861.67 Q1014.45 1870.4 1011.37 1875 Q1008.32 1879.59 1002.51 1879.59 Q996.697 1879.59 993.618 1875 Q990.562 1870.4 990.562 1861.67 Q990.562 1852.92 993.618 1848.34 Q996.697 1843.73 1002.51 1843.73 Z" fill="#000000" fill-rule="nonzero" fill-opacity="1"></path><path clip-path="url(#clip350)" d="M1695.21 1874.98 L1702.85 1874.98 L1702.85 1848.62 L1694.54 1850.28 L1694.54 1846.02 L1702.8 1844.36 L1707.48 1844.36 L1707.48 1874.98 L1715.11 1874.98 L1715.11 1878.92 L1695.21 1878.92 L1695.21 1874.98 Z" fill="#000000" fill-rule="nonzero" fill-opacity="1"></path><path clip-path="url(#clip350)" d="M1734.56 1847.44 Q1730.95 1847.44 1729.12 1851 Q1727.31 1854.54 1727.31 1861.67 Q1727.31 1868.78 1729.12 1872.34 Q1730.95 1875.88 1734.56 1875.88 Q1738.19 1875.88 1740 1872.34 Q1741.83 1868.78 1741.83 1861.67 Q1741.83 1854.54 1740 1851 Q1738.19 1847.44 1734.56 1847.44 M1734.56 1843.73 Q1740.37 1843.73 1743.42 1848.34 Q1746.5 1852.92 1746.5 1861.67 Q1746.5 1870.4 1743.42 1875 Q1740.37 1879.59 1734.56 1879.59 Q1728.75 1879.59 1725.67 1875 Q1722.61 1870.4 1722.61 1861.67 Q1722.61 1852.92 1725.67 1848.34 Q1728.75 1843.73 1734.56 1843.73 Z" fill="#000000" fill-rule="nonzero" fill-opacity="1"></path><path clip-path="url(#clip350)" d="M1764.72 1847.44 Q1761.11 1847.44 1759.28 1851 Q1757.48 1854.54 1757.48 1861.67 Q1757.48 1868.78 1759.28 1872.34 Q1761.11 1875.88 1764.72 1875.88 Q1768.35 1875.88 1770.16 1872.34 Q1771.99 1868.78 1771.99 1861.67 Q1771.99 1854.54 1770.16 1851 Q1768.35 1847.44 1764.72 1847.44 M1764.72 1843.73 Q1770.53 1843.73 1773.59 1848.34 Q1776.67 1852.92 1776.67 1861.67 Q1776.67 1870.4 1773.59 1875 Q1770.53 1879.59 1764.72 1879.59 Q1758.91 1879.59 1755.83 1875 Q1752.78 1870.4 1752.78 1861.67 Q1752.78 1852.92 1755.83 1848.34 Q1758.91 1843.73 1764.72 1843.73 Z" fill="#000000" fill-rule="nonzero" fill-opacity="1"></path><path clip-path="url(#clip350)" d="M2443.12 1874.98 L2450.75 1874.98 L2450.75 1848.62 L2442.44 1850.28 L2442.44 1846.02 L2450.71 1844.36 L2455.38 1844.36 L2455.38 1874.98 L2463.02 1874.98 L2463.02 1878.92 L2443.12 1878.92 L2443.12 1874.98 Z" fill="#000000" fill-rule="nonzero" fill-opacity="1"></path><path clip-path="url(#clip350)" d="M2472.51 1844.36 L2490.87 1844.36 L2490.87 1848.29 L2476.8 1848.29 L2476.8 1856.76 Q2477.81 1856.42 2478.83 1856.26 Q2479.85 1856.07 2480.87 1856.07 Q2486.66 1856.07 2490.04 1859.24 Q2493.42 1862.41 2493.42 1867.83 Q2493.42 1873.41 2489.94 1876.51 Q2486.47 1879.59 2480.15 1879.59 Q2477.98 1879.59 2475.71 1879.22 Q2473.46 1878.85 2471.06 1878.11 L2471.06 1873.41 Q2473.14 1874.54 2475.36 1875.1 Q2477.58 1875.65 2480.06 1875.65 Q2484.06 1875.65 2486.4 1873.55 Q2488.74 1871.44 2488.74 1867.83 Q2488.74 1864.22 2486.4 1862.11 Q2484.06 1860.01 2480.06 1860.01 Q2478.18 1860.01 2476.31 1860.42 Q2474.46 1860.84 2472.51 1861.72 L2472.51 1844.36 Z" fill="#000000" fill-rule="nonzero" fill-opacity="1"></path><path clip-path="url(#clip350)" d="M2512.63 1847.44 Q2509.02 1847.44 2507.19 1851 Q2505.38 1854.54 2505.38 1861.67 Q2505.38 1868.78 2507.19 1872.34 Q2509.02 1875.88 2512.63 1875.88 Q2516.26 1875.88 2518.07 1872.34 Q2519.9 1868.78 2519.9 1861.67 Q2519.9 1854.54 2518.07 1851 Q2516.26 1847.44 2512.63 1847.44 M2512.63 1843.73 Q2518.44 1843.73 2521.49 1848.34 Q2524.57 1852.92 2524.57 1861.67 Q2524.57 1870.4 2521.49 1875 Q2518.44 1879.59 2512.63 1879.59 Q2506.82 1879.59 2503.74 1875 Q2500.68 1870.4 2500.68 1861.67 Q2500.68 1852.92 2503.74 1848.34 Q2506.82 1843.73 2512.63 1843.73 Z" fill="#000000" fill-rule="nonzero" fill-opacity="1"></path><path clip-path="url(#clip350)" d="M1298.57 1942.66 L1298.57 1964.18 L1292.71 1964.18 L1292.71 1942.86 Q1292.71 1937.8 1290.74 1935.28 Q1288.76 1932.77 1284.82 1932.77 Q1280.07 1932.77 1277.34 1935.79 Q1274.6 1938.81 1274.6 1944.03 L1274.6 1964.18 L1268.71 1964.18 L1268.71 1914.66 L1274.6 1914.66 L1274.6 1934.07 Q1276.7 1930.86 1279.53 1929.27 Q1282.4 1927.67 1286.12 1927.67 Q1292.26 1927.67 1295.42 1931.49 Q1298.57 1935.28 1298.57 1942.66 Z" fill="#000000" fill-rule="nonzero" fill-opacity="1"></path><path clip-path="url(#clip350)" d="M1324.06 1932.64 Q1319.35 1932.64 1316.61 1936.33 Q1313.88 1939.99 1313.88 1946.39 Q1313.88 1952.79 1316.58 1956.48 Q1319.32 1960.14 1324.06 1960.14 Q1328.74 1960.14 1331.48 1956.45 Q1334.21 1952.75 1334.21 1946.39 Q1334.21 1940.05 1331.48 1936.36 Q1328.74 1932.64 1324.06 1932.64 M1324.06 1927.67 Q1331.7 1927.67 1336.06 1932.64 Q1340.42 1937.6 1340.42 1946.39 Q1340.42 1955.14 1336.06 1960.14 Q1331.7 1965.1 1324.06 1965.1 Q1316.39 1965.1 1312.03 1960.14 Q1307.7 1955.14 1307.7 1946.39 Q1307.7 1937.6 1312.03 1932.64 Q1316.39 1927.67 1324.06 1927.67 Z" fill="#000000" fill-rule="nonzero" fill-opacity="1"></path><path clip-path="url(#clip350)" d="M1349.52 1950.11 L1349.52 1928.53 L1355.38 1928.53 L1355.38 1949.89 Q1355.38 1954.95 1357.35 1957.5 Q1359.33 1960.01 1363.27 1960.01 Q1368.02 1960.01 1370.75 1956.99 Q1373.52 1953.96 1373.52 1948.74 L1373.52 1928.53 L1379.38 1928.53 L1379.38 1964.18 L1373.52 1964.18 L1373.52 1958.71 Q1371.39 1961.95 1368.56 1963.54 Q1365.76 1965.1 1362.03 1965.1 Q1355.89 1965.1 1352.71 1961.28 Q1349.52 1957.47 1349.52 1950.11 M1364.26 1927.67 L1364.26 1927.67 Z" fill="#000000" fill-rule="nonzero" fill-opacity="1"></path><path clip-path="url(#clip350)" d="M1412.1 1934.01 Q1411.11 1933.43 1409.93 1933.18 Q1408.79 1932.89 1407.39 1932.89 Q1402.42 1932.89 1399.75 1936.14 Q1397.11 1939.35 1397.11 1945.4 L1397.11 1964.18 L1391.22 1964.18 L1391.22 1928.53 L1397.11 1928.53 L1397.11 1934.07 Q1398.95 1930.82 1401.91 1929.27 Q1404.87 1927.67 1409.11 1927.67 Q1409.71 1927.67 1410.44 1927.77 Q1411.18 1927.83 1412.07 1927.99 L1412.1 1934.01 Z" fill="#000000" fill-rule="nonzero" fill-opacity="1"></path><path clip-path="url(#clip350)" d="M1438.96 1928.53 L1444.82 1928.53 L1444.82 1964.18 L1438.96 1964.18 L1438.96 1928.53 M1438.96 1914.66 L1444.82 1914.66 L1444.82 1922.07 L1438.96 1922.07 L1438.96 1914.66 Z" fill="#000000" fill-rule="nonzero" fill-opacity="1"></path><path clip-path="url(#clip350)" d="M1486.71 1942.66 L1486.71 1964.18 L1480.85 1964.18 L1480.85 1942.86 Q1480.85 1937.8 1478.88 1935.28 Q1476.9 1932.77 1472.96 1932.77 Q1468.21 1932.77 1465.48 1935.79 Q1462.74 1938.81 1462.74 1944.03 L1462.74 1964.18 L1456.85 1964.18 L1456.85 1928.53 L1462.74 1928.53 L1462.74 1934.07 Q1464.84 1930.86 1467.67 1929.27 Q1470.54 1927.67 1474.26 1927.67 Q1480.4 1927.67 1483.55 1931.49 Q1486.71 1935.28 1486.71 1942.66 Z" fill="#000000" fill-rule="nonzero" fill-opacity="1"></path><path clip-path="url(#clip350)" d="M1504.18 1918.41 L1504.18 1928.53 L1516.24 1928.53 L1516.24 1933.08 L1504.18 1933.08 L1504.18 1952.44 Q1504.18 1956.8 1505.36 1958.04 Q1506.57 1959.28 1510.23 1959.28 L1516.24 1959.28 L1516.24 1964.18 L1510.23 1964.18 Q1503.45 1964.18 1500.87 1961.67 Q1498.29 1959.12 1498.29 1952.44 L1498.29 1933.08 L1493.99 1933.08 L1493.99 1928.53 L1498.29 1928.53 L1498.29 1918.41 L1504.18 1918.41 Z" fill="#000000" fill-rule="nonzero" fill-opacity="1"></path><path clip-path="url(#clip350)" d="M1537.76 1932.64 Q1533.05 1932.64 1530.31 1936.33 Q1527.57 1939.99 1527.57 1946.39 Q1527.57 1952.79 1530.28 1956.48 Q1533.02 1960.14 1537.76 1960.14 Q1542.44 1960.14 1545.17 1956.45 Q1547.91 1952.75 1547.91 1946.39 Q1547.91 1940.05 1545.17 1936.36 Q1542.44 1932.64 1537.76 1932.64 M1537.76 1927.67 Q1545.4 1927.67 1549.76 1932.64 Q1554.12 1937.6 1554.12 1946.39 Q1554.12 1955.14 1549.76 1960.14 Q1545.4 1965.1 1537.76 1965.1 Q1530.09 1965.1 1525.73 1960.14 Q1521.4 1955.14 1521.4 1946.39 Q1521.4 1937.6 1525.73 1932.64 Q1530.09 1927.67 1537.76 1927.67 Z" fill="#000000" fill-rule="nonzero" fill-opacity="1"></path><path clip-path="url(#clip350)" d="M1599.38 1967.49 Q1596.9 1973.86 1594.54 1975.8 Q1592.19 1977.74 1588.24 1977.74 L1583.56 1977.74 L1583.56 1972.84 L1587 1972.84 Q1589.42 1972.84 1590.75 1971.69 Q1592.09 1970.55 1593.71 1966.28 L1594.76 1963.61 L1580.34 1928.53 L1586.55 1928.53 L1597.69 1956.41 L1608.83 1928.53 L1615.04 1928.53 L1599.38 1967.49 Z" fill="#000000" fill-rule="nonzero" fill-opacity="1"></path><path clip-path="url(#clip350)" d="M1653.61 1944.89 L1653.61 1947.76 L1626.69 1947.76 Q1627.07 1953.8 1630.32 1956.99 Q1633.59 1960.14 1639.42 1960.14 Q1642.79 1960.14 1645.94 1959.31 Q1649.13 1958.48 1652.25 1956.83 L1652.25 1962.37 Q1649.09 1963.7 1645.78 1964.4 Q1642.47 1965.1 1639.07 1965.1 Q1630.54 1965.1 1625.54 1960.14 Q1620.58 1955.17 1620.58 1946.71 Q1620.58 1937.95 1625.29 1932.83 Q1630.03 1927.67 1638.05 1927.67 Q1645.24 1927.67 1649.41 1932.32 Q1653.61 1936.94 1653.61 1944.89 M1647.76 1943.17 Q1647.69 1938.37 1645.05 1935.5 Q1642.44 1932.64 1638.11 1932.64 Q1633.21 1932.64 1630.25 1935.41 Q1627.32 1938.18 1626.88 1943.21 L1647.76 1943.17 Z" fill="#000000" fill-rule="nonzero" fill-opacity="1"></path><path clip-path="url(#clip350)" d="M1679.43 1946.26 Q1672.33 1946.26 1669.59 1947.88 Q1666.85 1949.51 1666.85 1953.42 Q1666.85 1956.54 1668.89 1958.39 Q1670.96 1960.2 1674.49 1960.2 Q1679.36 1960.2 1682.29 1956.76 Q1685.25 1953.3 1685.25 1947.57 L1685.25 1946.26 L1679.43 1946.26 M1691.11 1943.84 L1691.11 1964.18 L1685.25 1964.18 L1685.25 1958.77 Q1683.25 1962.02 1680.25 1963.58 Q1677.26 1965.1 1672.93 1965.1 Q1667.46 1965.1 1664.21 1962.05 Q1661 1958.96 1661 1953.8 Q1661 1947.79 1665.01 1944.73 Q1669.05 1941.68 1677.04 1941.68 L1685.25 1941.68 L1685.25 1941.11 Q1685.25 1937.06 1682.58 1934.87 Q1679.94 1932.64 1675.13 1932.64 Q1672.07 1932.64 1669.18 1933.37 Q1666.28 1934.1 1663.61 1935.57 L1663.61 1930.16 Q1666.82 1928.91 1669.85 1928.31 Q1672.87 1927.67 1675.73 1927.67 Q1683.47 1927.67 1687.29 1931.68 Q1691.11 1935.69 1691.11 1943.84 Z" fill="#000000" fill-rule="nonzero" fill-opacity="1"></path><path clip-path="url(#clip350)" d="M1723.83 1934.01 Q1722.84 1933.43 1721.66 1933.18 Q1720.52 1932.89 1719.12 1932.89 Q1714.15 1932.89 1711.48 1936.14 Q1708.84 1939.35 1708.84 1945.4 L1708.84 1964.18 L1702.95 1964.18 L1702.95 1928.53 L1708.84 1928.53 L1708.84 1934.07 Q1710.68 1930.82 1713.64 1929.27 Q1716.6 1927.67 1720.84 1927.67 Q1721.44 1927.67 1722.17 1927.77 Q1722.9 1927.83 1723.8 1927.99 L1723.83 1934.01 Z" fill="#000000" fill-rule="nonzero" fill-opacity="1"></path><polyline clip-path="url(#clip350)" style="stroke:#000000; stroke-linecap:round; stroke-linejoin:round; stroke-width:4; stroke-opacity:1; fill:none" points="239.784,1813.32 239.784,47.2441 "></polyline>
<polyline clip-path="url(#clip350)" style="stroke:#000000; stroke-linecap:round; stroke-linejoin:round; stroke-width:4; stroke-opacity:1; fill:none" points="239.784,1813.32 258.681,1813.32 "></polyline>
<polyline clip-path="url(#clip350)" style="stroke:#000000; stroke-linecap:round; stroke-linejoin:round; stroke-width:4; stroke-opacity:1; fill:none" points="239.784,1518.97 258.681,1518.97 "></polyline>
<polyline clip-path="url(#clip350)" style="stroke:#000000; stroke-linecap:round; stroke-linejoin:round; stroke-width:4; stroke-opacity:1; fill:none" points="239.784,1224.63 258.681,1224.63 "></polyline>
<polyline clip-path="url(#clip350)" style="stroke:#000000; stroke-linecap:round; stroke-linejoin:round; stroke-width:4; stroke-opacity:1; fill:none" points="239.784,930.281 258.681,930.281 "></polyline>
<polyline clip-path="url(#clip350)" style="stroke:#000000; stroke-linecap:round; stroke-linejoin:round; stroke-width:4; stroke-opacity:1; fill:none" points="239.784,635.935 258.681,635.935 "></polyline>
<polyline clip-path="url(#clip350)" style="stroke:#000000; stroke-linecap:round; stroke-linejoin:round; stroke-width:4; stroke-opacity:1; fill:none" points="239.784,341.59 258.681,341.59 "></polyline>
<polyline clip-path="url(#clip350)" style="stroke:#000000; stroke-linecap:round; stroke-linejoin:round; stroke-width:4; stroke-opacity:1; fill:none" points="239.784,47.2441 258.681,47.2441 "></polyline>
<path clip-path="url(#clip350)" d="M185.839 1799.12 Q182.228 1799.12 180.399 1802.68 Q178.594 1806.22 178.594 1813.35 Q178.594 1820.46 180.399 1824.02 Q182.228 1827.56 185.839 1827.56 Q189.473 1827.56 191.279 1824.02 Q193.108 1820.46 193.108 1813.35 Q193.108 1806.22 191.279 1802.68 Q189.473 1799.12 185.839 1799.12 M185.839 1795.41 Q191.649 1795.41 194.705 1800.02 Q197.784 1804.6 197.784 1813.35 Q197.784 1822.08 194.705 1826.68 Q191.649 1831.27 185.839 1831.27 Q180.029 1831.27 176.95 1826.68 Q173.895 1822.08 173.895 1813.35 Q173.895 1804.6 176.95 1800.02 Q180.029 1795.41 185.839 1795.41 Z" fill="#000000" fill-rule="nonzero" fill-opacity="1"></path><path clip-path="url(#clip350)" d="M149.705 1532.32 L166.025 1532.32 L166.025 1536.25 L144.08 1536.25 L144.08 1532.32 Q146.742 1529.56 151.326 1524.93 Q155.932 1520.28 157.113 1518.94 Q159.358 1516.41 160.238 1514.68 Q161.14 1512.92 161.14 1511.23 Q161.14 1508.47 159.196 1506.74 Q157.275 1505 154.173 1505 Q151.974 1505 149.52 1505.77 Q147.089 1506.53 144.312 1508.08 L144.312 1503.36 Q147.136 1502.22 149.589 1501.65 Q152.043 1501.07 154.08 1501.07 Q159.451 1501.07 162.645 1503.75 Q165.839 1506.44 165.839 1510.93 Q165.839 1513.06 165.029 1514.98 Q164.242 1516.88 162.136 1519.47 Q161.557 1520.14 158.455 1523.36 Q155.353 1526.55 149.705 1532.32 Z" fill="#000000" fill-rule="nonzero" fill-opacity="1"></path><path clip-path="url(#clip350)" d="M185.839 1504.77 Q182.228 1504.77 180.399 1508.33 Q178.594 1511.88 178.594 1519.01 Q178.594 1526.11 180.399 1529.68 Q182.228 1533.22 185.839 1533.22 Q189.473 1533.22 191.279 1529.68 Q193.108 1526.11 193.108 1519.01 Q193.108 1511.88 191.279 1508.33 Q189.473 1504.77 185.839 1504.77 M185.839 1501.07 Q191.649 1501.07 194.705 1505.67 Q197.784 1510.26 197.784 1519.01 Q197.784 1527.73 194.705 1532.34 Q191.649 1536.92 185.839 1536.92 Q180.029 1536.92 176.95 1532.34 Q173.895 1527.73 173.895 1519.01 Q173.895 1510.26 176.95 1505.67 Q180.029 1501.07 185.839 1501.07 Z" fill="#000000" fill-rule="nonzero" fill-opacity="1"></path><path clip-path="url(#clip350)" d="M158.525 1211.42 L146.719 1229.87 L158.525 1229.87 L158.525 1211.42 M157.298 1207.35 L163.177 1207.35 L163.177 1229.87 L168.108 1229.87 L168.108 1233.76 L163.177 1233.76 L163.177 1241.91 L158.525 1241.91 L158.525 1233.76 L142.923 1233.76 L142.923 1229.24 L157.298 1207.35 Z" fill="#000000" fill-rule="nonzero" fill-opacity="1"></path><path clip-path="url(#clip350)" d="M185.839 1210.42 Q182.228 1210.42 180.399 1213.99 Q178.594 1217.53 178.594 1224.66 Q178.594 1231.77 180.399 1235.33 Q182.228 1238.87 185.839 1238.87 Q189.473 1238.87 191.279 1235.33 Q193.108 1231.77 193.108 1224.66 Q193.108 1217.53 191.279 1213.99 Q189.473 1210.42 185.839 1210.42 M185.839 1206.72 Q191.649 1206.72 194.705 1211.33 Q197.784 1215.91 197.784 1224.66 Q197.784 1233.39 194.705 1237.99 Q191.649 1242.58 185.839 1242.58 Q180.029 1242.58 176.95 1237.99 Q173.895 1233.39 173.895 1224.66 Q173.895 1215.91 176.95 1211.33 Q180.029 1206.72 185.839 1206.72 Z" fill="#000000" fill-rule="nonzero" fill-opacity="1"></path><path clip-path="url(#clip350)" d="M156.256 928.417 Q153.108 928.417 151.256 930.57 Q149.427 932.723 149.427 936.473 Q149.427 940.199 151.256 942.375 Q153.108 944.528 156.256 944.528 Q159.404 944.528 161.233 942.375 Q163.085 940.199 163.085 936.473 Q163.085 932.723 161.233 930.57 Q159.404 928.417 156.256 928.417 M165.538 913.764 L165.538 918.024 Q163.779 917.19 161.974 916.751 Q160.191 916.311 158.432 916.311 Q153.802 916.311 151.349 919.436 Q148.918 922.561 148.571 928.88 Q149.937 926.866 151.997 925.801 Q154.057 924.713 156.534 924.713 Q161.742 924.713 164.751 927.885 Q167.784 931.033 167.784 936.473 Q167.784 941.797 164.636 945.014 Q161.488 948.232 156.256 948.232 Q150.261 948.232 147.089 943.649 Q143.918 939.042 143.918 930.315 Q143.918 922.121 147.807 917.26 Q151.696 912.376 158.247 912.376 Q160.006 912.376 161.788 912.723 Q163.594 913.07 165.538 913.764 Z" fill="#000000" fill-rule="nonzero" fill-opacity="1"></path><path clip-path="url(#clip350)" d="M185.839 916.079 Q182.228 916.079 180.399 919.644 Q178.594 923.186 178.594 930.315 Q178.594 937.422 180.399 940.987 Q182.228 944.528 185.839 944.528 Q189.473 944.528 191.279 940.987 Q193.108 937.422 193.108 930.315 Q193.108 923.186 191.279 919.644 Q189.473 916.079 185.839 916.079 M185.839 912.376 Q191.649 912.376 194.705 916.982 Q197.784 921.565 197.784 930.315 Q197.784 939.042 194.705 943.649 Q191.649 948.232 185.839 948.232 Q180.029 948.232 176.95 943.649 Q173.895 939.042 173.895 930.315 Q173.895 921.565 176.95 916.982 Q180.029 912.376 185.839 912.376 Z" fill="#000000" fill-rule="nonzero" fill-opacity="1"></path><path clip-path="url(#clip350)" d="M155.677 636.803 Q152.344 636.803 150.423 638.586 Q148.525 640.368 148.525 643.493 Q148.525 646.618 150.423 648.4 Q152.344 650.183 155.677 650.183 Q159.011 650.183 160.932 648.4 Q162.853 646.595 162.853 643.493 Q162.853 640.368 160.932 638.586 Q159.034 636.803 155.677 636.803 M151.001 634.812 Q147.992 634.072 146.302 632.011 Q144.636 629.951 144.636 626.988 Q144.636 622.845 147.576 620.437 Q150.539 618.03 155.677 618.03 Q160.839 618.03 163.779 620.437 Q166.719 622.845 166.719 626.988 Q166.719 629.951 165.029 632.011 Q163.363 634.072 160.376 634.812 Q163.756 635.599 165.631 637.891 Q167.529 640.183 167.529 643.493 Q167.529 648.516 164.45 651.201 Q161.395 653.886 155.677 653.886 Q149.96 653.886 146.881 651.201 Q143.826 648.516 143.826 643.493 Q143.826 640.183 145.724 637.891 Q147.622 635.599 151.001 634.812 M149.289 627.428 Q149.289 630.113 150.955 631.618 Q152.645 633.123 155.677 633.123 Q158.687 633.123 160.376 631.618 Q162.089 630.113 162.089 627.428 Q162.089 624.743 160.376 623.238 Q158.687 621.734 155.677 621.734 Q152.645 621.734 150.955 623.238 Q149.289 624.743 149.289 627.428 Z" fill="#000000" fill-rule="nonzero" fill-opacity="1"></path><path clip-path="url(#clip350)" d="M185.839 621.734 Q182.228 621.734 180.399 625.299 Q178.594 628.84 178.594 635.97 Q178.594 643.076 180.399 646.641 Q182.228 650.183 185.839 650.183 Q189.473 650.183 191.279 646.641 Q193.108 643.076 193.108 635.97 Q193.108 628.84 191.279 625.299 Q189.473 621.734 185.839 621.734 M185.839 618.03 Q191.649 618.03 194.705 622.637 Q197.784 627.22 197.784 635.97 Q197.784 644.697 194.705 649.303 Q191.649 653.886 185.839 653.886 Q180.029 653.886 176.95 649.303 Q173.895 644.697 173.895 635.97 Q173.895 627.22 176.95 622.637 Q180.029 618.03 185.839 618.03 Z" fill="#000000" fill-rule="nonzero" fill-opacity="1"></path><path clip-path="url(#clip350)" d="M116.326 354.934 L123.965 354.934 L123.965 328.569 L115.654 330.235 L115.654 325.976 L123.918 324.31 L128.594 324.31 L128.594 354.934 L136.233 354.934 L136.233 358.87 L116.326 358.87 L116.326 354.934 Z" fill="#000000" fill-rule="nonzero" fill-opacity="1"></path><path clip-path="url(#clip350)" d="M155.677 327.388 Q152.066 327.388 150.238 330.953 Q148.432 334.495 148.432 341.624 Q148.432 348.731 150.238 352.296 Q152.066 355.837 155.677 355.837 Q159.312 355.837 161.117 352.296 Q162.946 348.731 162.946 341.624 Q162.946 334.495 161.117 330.953 Q159.312 327.388 155.677 327.388 M155.677 323.685 Q161.488 323.685 164.543 328.291 Q167.622 332.874 167.622 341.624 Q167.622 350.351 164.543 354.958 Q161.488 359.541 155.677 359.541 Q149.867 359.541 146.789 354.958 Q143.733 350.351 143.733 341.624 Q143.733 332.874 146.789 328.291 Q149.867 323.685 155.677 323.685 Z" fill="#000000" fill-rule="nonzero" fill-opacity="1"></path><path clip-path="url(#clip350)" d="M185.839 327.388 Q182.228 327.388 180.399 330.953 Q178.594 334.495 178.594 341.624 Q178.594 348.731 180.399 352.296 Q182.228 355.837 185.839 355.837 Q189.473 355.837 191.279 352.296 Q193.108 348.731 193.108 341.624 Q193.108 334.495 191.279 330.953 Q189.473 327.388 185.839 327.388 M185.839 323.685 Q191.649 323.685 194.705 328.291 Q197.784 332.874 197.784 341.624 Q197.784 350.351 194.705 354.958 Q191.649 359.541 185.839 359.541 Q180.029 359.541 176.95 354.958 Q173.895 350.351 173.895 341.624 Q173.895 332.874 176.95 328.291 Q180.029 323.685 185.839 323.685 Z" fill="#000000" fill-rule="nonzero" fill-opacity="1"></path><path clip-path="url(#clip350)" d="M116.326 60.5889 L123.965 60.5889 L123.965 34.2233 L115.654 35.89 L115.654 31.6308 L123.918 29.9641 L128.594 29.9641 L128.594 60.5889 L136.233 60.5889 L136.233 64.5241 L116.326 64.5241 L116.326 60.5889 Z" fill="#000000" fill-rule="nonzero" fill-opacity="1"></path><path clip-path="url(#clip350)" d="M149.705 60.5889 L166.025 60.5889 L166.025 64.5241 L144.08 64.5241 L144.08 60.5889 Q146.742 57.8343 151.326 53.2047 Q155.932 48.552 157.113 47.2094 Q159.358 44.6862 160.238 42.9501 Q161.14 41.1909 161.14 39.5011 Q161.14 36.7465 159.196 35.0104 Q157.275 33.2743 154.173 33.2743 Q151.974 33.2743 149.52 34.0381 Q147.089 34.802 144.312 36.3529 L144.312 31.6308 Q147.136 30.4965 149.589 29.9178 Q152.043 29.3391 154.08 29.3391 Q159.451 29.3391 162.645 32.0243 Q165.839 34.7094 165.839 39.2002 Q165.839 41.3298 165.029 43.2511 Q164.242 45.1492 162.136 47.7418 Q161.557 48.4131 158.455 51.6306 Q155.353 54.8251 149.705 60.5889 Z" fill="#000000" fill-rule="nonzero" fill-opacity="1"></path><path clip-path="url(#clip350)" d="M185.839 33.0428 Q182.228 33.0428 180.399 36.6076 Q178.594 40.1492 178.594 47.2788 Q178.594 54.3853 180.399 57.9501 Q182.228 61.4917 185.839 61.4917 Q189.473 61.4917 191.279 57.9501 Q193.108 54.3853 193.108 47.2788 Q193.108 40.1492 191.279 36.6076 Q189.473 33.0428 185.839 33.0428 M185.839 29.3391 Q191.649 29.3391 194.705 33.9456 Q197.784 38.5289 197.784 47.2788 Q197.784 56.0056 194.705 60.6121 Q191.649 65.1954 185.839 65.1954 Q180.029 65.1954 176.95 60.6121 Q173.895 56.0056 173.895 47.2788 Q173.895 38.5289 176.95 33.9456 Q180.029 29.3391 185.839 29.3391 Z" fill="#000000" fill-rule="nonzero" fill-opacity="1"></path><path clip-path="url(#clip350)" d="M9.87325 1090.2 L9.87325 1084.35 L59.3984 1084.35 L59.3984 1090.2 L9.87325 1090.2 Z" fill="#000000" fill-rule="nonzero" fill-opacity="1"></path><path clip-path="url(#clip350)" d="M27.8564 1058.28 Q27.8564 1062.99 31.5485 1065.73 Q35.2088 1068.46 41.6063 1068.46 Q48.0038 1068.46 51.6959 1065.76 Q55.3562 1063.02 55.3562 1058.28 Q55.3562 1053.6 51.6641 1050.86 Q47.972 1048.13 41.6063 1048.13 Q35.2724 1048.13 31.5803 1050.86 Q27.8564 1053.6 27.8564 1058.28 M22.8911 1058.28 Q22.8911 1050.64 27.8564 1046.28 Q32.8216 1041.92 41.6063 1041.92 Q50.3591 1041.92 55.3562 1046.28 Q60.3215 1050.64 60.3215 1058.28 Q60.3215 1065.95 55.3562 1070.31 Q50.3591 1074.64 41.6063 1074.64 Q32.8216 1074.64 27.8564 1070.31 Q22.8911 1065.95 22.8911 1058.28 Z" fill="#000000" fill-rule="nonzero" fill-opacity="1"></path><path clip-path="url(#clip350)" d="M41.479 1016.01 Q41.479 1023.11 43.1022 1025.85 Q44.7255 1028.58 48.6404 1028.58 Q51.7596 1028.58 53.6057 1026.55 Q55.4199 1024.48 55.4199 1020.94 Q55.4199 1016.07 51.9824 1013.15 Q48.5131 1010.19 42.7839 1010.19 L41.479 1010.19 L41.479 1016.01 M39.06 1004.33 L59.3984 1004.33 L59.3984 1010.19 L53.9876 1010.19 Q57.2341 1012.19 58.7937 1015.18 Q60.3215 1018.18 60.3215 1022.5 Q60.3215 1027.98 57.2659 1031.22 Q54.1786 1034.44 49.0223 1034.44 Q43.0067 1034.44 39.9512 1030.43 Q36.8957 1026.39 36.8957 1018.4 L36.8957 1010.19 L36.3228 1010.19 Q32.2805 1010.19 30.0844 1012.86 Q27.8564 1015.5 27.8564 1020.31 Q27.8564 1023.36 28.5884 1026.26 Q29.3205 1029.16 30.7846 1031.83 L25.3737 1031.83 Q24.1324 1028.61 23.5277 1025.59 Q22.8911 1022.57 22.8911 1019.7 Q22.8911 1011.97 26.9015 1008.15 Q30.9119 1004.33 39.06 1004.33 Z" fill="#000000" fill-rule="nonzero" fill-opacity="1"></path><path clip-path="url(#clip350)" d="M29.1613 968.809 L9.87325 968.809 L9.87325 962.953 L59.3984 962.953 L59.3984 968.809 L54.0512 968.809 Q57.2341 970.655 58.7937 973.488 Q60.3215 976.289 60.3215 980.235 Q60.3215 986.697 55.1652 990.771 Q50.009 994.813 41.6063 994.813 Q33.2036 994.813 28.0473 990.771 Q22.8911 986.697 22.8911 980.235 Q22.8911 976.289 24.4507 973.488 Q25.9785 970.655 29.1613 968.809 M41.6063 988.765 Q48.0675 988.765 51.7596 986.124 Q55.4199 983.45 55.4199 978.803 Q55.4199 974.156 51.7596 971.483 Q48.0675 968.809 41.6063 968.809 Q35.1451 968.809 31.4848 971.483 Q27.7927 974.156 27.7927 978.803 Q27.7927 983.45 31.4848 986.124 Q35.1451 988.765 41.6063 988.765 Z" fill="#000000" fill-rule="nonzero" fill-opacity="1"></path><path clip-path="url(#clip350)" d="M9.87325 930.71 L9.87325 917.215 L14.4247 917.215 L14.4247 924.854 L63.4407 924.854 L63.4407 917.215 L67.9921 917.215 L67.9921 930.71 L9.87325 930.71 Z" fill="#000000" fill-rule="nonzero" fill-opacity="1"></path><path clip-path="url(#clip350)" d="M11.8784 904.484 L11.8784 894.903 L44.2162 882.776 L11.8784 870.586 L11.8784 861.006 L59.3984 861.006 L59.3984 867.276 L17.6712 867.276 L50.2637 879.53 L50.2637 885.991 L17.6712 898.245 L59.3984 898.245 L59.3984 904.484 L11.8784 904.484 Z" fill="#000000" fill-rule="nonzero" fill-opacity="1"></path><path clip-path="url(#clip350)" d="M11.8784 852.476 L11.8784 845.983 L52.0461 835.989 L11.8784 826.026 L11.8784 818.801 L52.0461 808.807 L11.8784 798.845 L11.8784 792.32 L59.3984 804.255 L59.3984 812.34 L18.1487 822.366 L59.3984 832.487 L59.3984 840.572 L11.8784 852.476 Z" fill="#000000" fill-rule="nonzero" fill-opacity="1"></path><path clip-path="url(#clip350)" d="M9.87325 770.358 L67.9921 770.358 L67.9921 783.853 L63.4407 783.853 L63.4407 776.246 L14.4247 776.246 L14.4247 783.853 L9.87325 783.853 L9.87325 770.358 Z" fill="#000000" fill-rule="nonzero" fill-opacity="1"></path><polyline clip-path="url(#clip352)" style="stroke:#2f4f4f; stroke-linecap:round; stroke-linejoin:round; stroke-width:4; stroke-opacity:1; fill:none" points="254.742,940.817 269.7,1013.04 284.658,1065.01 299.616,1096.32 314.574,1101.63 329.533,1081.67 344.491,994.113 359.449,839.6 374.407,681.823 389.365,614.48 404.323,583.706 419.282,565.263 434.24,549.447 449.198,580.672 464.156,611.151 479.114,630.892 494.072,635.512 509.031,596.065 523.989,506.464 538.947,516.069 553.905,601.337 568.863,691.804 583.822,793.353 598.78,876.761 613.738,910.37 628.696,972.376 643.654,1039.15 658.612,1076.71 673.571,1090.04 688.529,1091.69 703.487,1063.5 718.445,994.034 733.403,908.993 748.361,825.329 763.32,759.149 778.278,735.132 793.236,723.472 808.194,747.86 823.152,780.386 838.11,795.05 853.069,779.275 868.027,702.571 882.985,568.36 897.943,581.514 912.901,678.563 927.859,758.652 942.818,837.268 957.776,910.545 972.734,923.622 987.692,986.421 1002.65,1052.53 1017.61,1096.02 1032.57,1118.03 1047.52,1129.19 1062.48,1131.73 1077.44,1116.12 1092.4,1083.2 1107.36,1013.96 1122.32,904.746 1137.27,828.882 1152.23,777.07 1167.19,726.981 1182.15,739.513 1197.11,779.833 1212.06,792.649 1227.02,758.863 1241.98,646.864 1256.94,651.115 1271.9,705.278 1286.86,747.174 1301.81,782.102 1316.77,858.917 1331.73,887.131 1346.69,973.154 1361.65,1048.97 1376.6,1090.43 1391.56,1107.62 1406.52,1111.53 1421.48,1091.14 1436.44,1004.62 1451.4,820.829 1466.35,713.251 1481.31,637.807 1496.27,603.66 1511.23,582.536 1526.19,559.561 1541.14,581.074 1556.1,578.882 1571.06,562.339 1586.02,504.83 1600.98,360.693 1615.94,379.022 1630.89,473.488 1645.85,562.403 1660.81,659.552 1675.77,768.642 1690.73,830.299 1705.68,946.621 1720.64,1026 1735.6,1077.39 1750.56,1099.34 1765.52,1109.8 1780.47,1087.91 1795.43,988.824 1810.39,779.109 1825.35,683.912 1840.31,632.658 1855.27,615.937 1870.22,600.682 1885.18,577.322 1900.14,582.286 1915.1,572.756 1930.06,556.663 1945.01,483.409 1959.97,346.161 1974.93,376.762 1989.89,474.35 2004.85,552.776 2019.81,645.18 2034.76,759.937 2049.72,813.304 2064.68,929.971 2079.64,1005.45 2094.6,1045.86 2109.55,1066.76 2124.51,1071.65 2139.47,1050.6 2154.43,952.905 2169.39,752.115 2184.35,661.268 2199.3,605.318 2214.26,589.443 2229.22,586.377 2244.18,578.721 2259.14,606.263 2274.09,608.298 2289.05,587.794 2304.01,505.299 2318.97,341.59 2333.93,364.68 2348.89,450.678 2363.84,536.208 2378.8,647.73 2393.76,768.086 2408.72,828.07 2423.68,943.592 2438.63,1035.91 2453.59,1085.12 2468.55,1102.15 2483.51,1106.71 2498.47,1098.45 2513.43,1002.78 2528.38,771.856 2543.34,681.808 2558.3,636.315 2573.26,620.294 2588.22,605.827 2603.17,593.17 2618.13,601.927 2633.09,596.682 2648.05,568.386 2663.01,481.416 2677.97,347.652 2692.92,390.574 2707.88,473.623 2722.84,553.915 2737.8,645.864 2752.76,754.922 "></polyline>
<path clip-path="url(#clip350)" d="M323.549 209.793 L833.989 209.793 L833.989 106.113 L323.549 106.113  Z" fill="#ffffff" fill-rule="evenodd" fill-opacity="1"></path>
<polyline clip-path="url(#clip350)" style="stroke:#000000; stroke-linecap:round; stroke-linejoin:round; stroke-width:4; stroke-opacity:1; fill:none" points="323.549,209.793 833.989,209.793 833.989,106.113 323.549,106.113 323.549,209.793 "></polyline>
<polyline clip-path="url(#clip350)" style="stroke:#2f4f4f; stroke-linecap:round; stroke-linejoin:round; stroke-width:4; stroke-opacity:1; fill:none" points="351.471,157.953 519.003,157.953 "></polyline>
<path clip-path="url(#clip350)" d="M546.925 139.215 L551.184 139.215 L551.184 175.233 L546.925 175.233 L546.925 139.215 Z" fill="#000000" fill-rule="nonzero" fill-opacity="1"></path><path clip-path="url(#clip350)" d="M570.142 152.293 Q566.716 152.293 564.726 154.979 Q562.735 157.641 562.735 162.293 Q562.735 166.946 564.702 169.631 Q566.693 172.293 570.142 172.293 Q573.545 172.293 575.536 169.608 Q577.526 166.923 577.526 162.293 Q577.526 157.687 575.536 155.002 Q573.545 152.293 570.142 152.293 M570.142 148.682 Q575.698 148.682 578.869 152.293 Q582.04 155.905 582.04 162.293 Q582.04 168.659 578.869 172.293 Q575.698 175.904 570.142 175.904 Q564.563 175.904 561.392 172.293 Q558.244 168.659 558.244 162.293 Q558.244 155.905 561.392 152.293 Q564.563 148.682 570.142 148.682 Z" fill="#000000" fill-rule="nonzero" fill-opacity="1"></path><path clip-path="url(#clip350)" d="M600.883 162.201 Q595.721 162.201 593.73 163.381 Q591.739 164.562 591.739 167.409 Q591.739 169.678 593.221 171.02 Q594.725 172.34 597.295 172.34 Q600.836 172.34 602.966 169.84 Q605.119 167.317 605.119 163.15 L605.119 162.201 L600.883 162.201 M609.378 160.442 L609.378 175.233 L605.119 175.233 L605.119 171.298 Q603.66 173.659 601.485 174.793 Q599.309 175.904 596.161 175.904 Q592.179 175.904 589.818 173.682 Q587.48 171.437 587.48 167.687 Q587.48 163.312 590.397 161.09 Q593.336 158.868 599.147 158.868 L605.119 158.868 L605.119 158.451 Q605.119 155.511 603.174 153.914 Q601.253 152.293 597.758 152.293 Q595.536 152.293 593.429 152.826 Q591.323 153.358 589.378 154.423 L589.378 150.488 Q591.716 149.585 593.915 149.145 Q596.114 148.682 598.198 148.682 Q603.823 148.682 606.6 151.599 Q609.378 154.516 609.378 160.442 Z" fill="#000000" fill-rule="nonzero" fill-opacity="1"></path><path clip-path="url(#clip350)" d="M635.211 153.243 L635.211 139.215 L639.47 139.215 L639.47 175.233 L635.211 175.233 L635.211 171.344 Q633.869 173.659 631.808 174.793 Q629.771 175.904 626.901 175.904 Q622.202 175.904 619.239 172.155 Q616.299 168.405 616.299 162.293 Q616.299 156.182 619.239 152.432 Q622.202 148.682 626.901 148.682 Q629.771 148.682 631.808 149.817 Q633.869 150.928 635.211 153.243 M620.697 162.293 Q620.697 166.992 622.619 169.678 Q624.563 172.34 627.943 172.34 Q631.322 172.34 633.267 169.678 Q635.211 166.992 635.211 162.293 Q635.211 157.594 633.267 154.932 Q631.322 152.247 627.943 152.247 Q624.563 152.247 622.619 154.932 Q620.697 157.594 620.697 162.293 Z" fill="#000000" fill-rule="nonzero" fill-opacity="1"></path><path clip-path="url(#clip350)" d="M667.433 171.344 L667.433 185.094 L663.151 185.094 L663.151 149.307 L667.433 149.307 L667.433 153.243 Q668.776 150.928 670.813 149.817 Q672.873 148.682 675.72 148.682 Q680.442 148.682 683.382 152.432 Q686.345 156.182 686.345 162.293 Q686.345 168.405 683.382 172.155 Q680.442 175.904 675.72 175.904 Q672.873 175.904 670.813 174.793 Q668.776 173.659 667.433 171.344 M681.924 162.293 Q681.924 157.594 679.98 154.932 Q678.058 152.247 674.679 152.247 Q671.299 152.247 669.355 154.932 Q667.433 157.594 667.433 162.293 Q667.433 166.992 669.355 169.678 Q671.299 172.34 674.679 172.34 Q678.058 172.34 679.98 169.678 Q681.924 166.992 681.924 162.293 Z" fill="#000000" fill-rule="nonzero" fill-opacity="1"></path><path clip-path="url(#clip350)" d="M708.428 153.289 Q707.711 152.872 706.854 152.687 Q706.021 152.479 705.003 152.479 Q701.391 152.479 699.447 154.84 Q697.526 157.178 697.526 161.576 L697.526 175.233 L693.243 175.233 L693.243 149.307 L697.526 149.307 L697.526 153.335 Q698.868 150.974 701.021 149.84 Q703.174 148.682 706.253 148.682 Q706.692 148.682 707.225 148.752 Q707.757 148.798 708.405 148.914 L708.428 153.289 Z" fill="#000000" fill-rule="nonzero" fill-opacity="1"></path><path clip-path="url(#clip350)" d="M721.901 152.293 Q718.475 152.293 716.484 154.979 Q714.493 157.641 714.493 162.293 Q714.493 166.946 716.461 169.631 Q718.452 172.293 721.901 172.293 Q725.303 172.293 727.294 169.608 Q729.285 166.923 729.285 162.293 Q729.285 157.687 727.294 155.002 Q725.303 152.293 721.901 152.293 M721.901 148.682 Q727.456 148.682 730.627 152.293 Q733.799 155.905 733.799 162.293 Q733.799 168.659 730.627 172.293 Q727.456 175.904 721.901 175.904 Q716.322 175.904 713.151 172.293 Q710.003 168.659 710.003 162.293 Q710.003 155.905 713.151 152.293 Q716.322 148.682 721.901 148.682 Z" fill="#000000" fill-rule="nonzero" fill-opacity="1"></path><path clip-path="url(#clip350)" d="M753.984 139.215 L753.984 142.757 L749.91 142.757 Q747.618 142.757 746.715 143.682 Q745.836 144.608 745.836 147.016 L745.836 149.307 L752.85 149.307 L752.85 152.618 L745.836 152.618 L745.836 175.233 L741.553 175.233 L741.553 152.618 L737.479 152.618 L737.479 149.307 L741.553 149.307 L741.553 147.502 Q741.553 143.173 743.567 141.206 Q745.581 139.215 749.956 139.215 L753.984 139.215 Z" fill="#000000" fill-rule="nonzero" fill-opacity="1"></path><path clip-path="url(#clip350)" d="M757.549 149.307 L761.808 149.307 L761.808 175.233 L757.549 175.233 L757.549 149.307 M757.549 139.215 L761.808 139.215 L761.808 144.608 L757.549 144.608 L757.549 139.215 Z" fill="#000000" fill-rule="nonzero" fill-opacity="1"></path><path clip-path="url(#clip350)" d="M770.72 139.215 L774.979 139.215 L774.979 175.233 L770.72 175.233 L770.72 139.215 Z" fill="#000000" fill-rule="nonzero" fill-opacity="1"></path><path clip-path="url(#clip350)" d="M806.067 161.205 L806.067 163.289 L786.484 163.289 Q786.761 167.687 789.122 170.002 Q791.507 172.293 795.743 172.293 Q798.196 172.293 800.488 171.692 Q802.803 171.09 805.071 169.886 L805.071 173.914 Q802.78 174.886 800.372 175.395 Q797.965 175.904 795.488 175.904 Q789.285 175.904 785.65 172.293 Q782.039 168.682 782.039 162.525 Q782.039 156.159 785.465 152.432 Q788.914 148.682 794.747 148.682 Q799.979 148.682 803.011 152.062 Q806.067 155.418 806.067 161.205 M801.808 159.955 Q801.761 156.46 799.84 154.377 Q797.942 152.293 794.794 152.293 Q791.229 152.293 789.076 154.307 Q786.947 156.321 786.622 159.979 L801.808 159.955 Z" fill="#000000" fill-rule="nonzero" fill-opacity="1"></path></svg>